<svg viewBox="0 0 64 35" fill="none" xmlns="http://www.w3.org/2000/svg">
<path d="M24.7144 29.0615C24.7124 29.0615 24.7085 29.0635 24.7085 29.0635C24.6773 29.085 24.7046 29.0694 24.7144 29.0615Z" fill="white"/>
<path d="M63.3335 9.03613L54.0952 3.70305C53.9956 3.64543 53.8901 3.60243 53.7847 3.57318L53.7867 3.5683C53.3767 3.4228 43.6208 0 31.9996 0C20.3806 0 10.6403 3.47068 10.2302 3.61618C10.1188 3.64543 10.0094 3.69043 9.90406 3.75093L0.667673 9.08401C0.0290383 9.45214 -0.189715 10.2676 0.179415 10.9053L13.5115 33.999C13.7595 34.4268 14.2067 34.667 14.6678 34.667C14.8943 34.667 15.1229 34.6084 15.3338 34.4873L24.7049 29.0655C24.7225 29.0538 24.7205 29.0578 24.7146 29.0617C25.7088 28.6593 28.2967 27.9992 32.0389 27.9992C35.9862 27.9992 38.5955 28.7179 39.4256 29.1047C39.4276 29.1047 39.4276 29.1047 39.4295 29.1067L48.6659 34.4405C48.8769 34.5616 49.1054 34.6183 49.3319 34.6183C49.7929 34.6183 50.242 34.38 50.4881 33.9522L63.8221 10.8575C64.189 10.2196 63.9702 9.40426 63.3335 9.03613ZM15.1539 31.5106L3.15383 10.7265L10.0836 6.72647L11.4156 9.03613L6.79839 11.703C6.15975 12.0712 5.941 12.8867 6.31013 13.5243C6.67739 14.163 7.49365 14.3817 8.13041 14.0126L8.13241 14.0106L12.7496 11.3457L14.0835 13.6553L9.4643 16.3214C8.82567 16.6905 8.60879 17.5049 8.97604 18.1436C9.3433 18.7804 10.1597 18.9992 10.7983 18.6319L15.4155 15.964L16.7495 18.2725L12.1305 20.9406C11.4937 21.3078 11.275 22.1242 11.6422 22.7608C12.0113 23.3995 12.8258 23.6182 13.4645 23.2491L18.0837 20.5831L19.4157 22.8936L14.7985 25.5596C14.1599 25.9288 13.9411 26.7433 14.3102 27.3819C14.6775 28.0187 15.4938 28.2374 16.1305 27.8702L20.7497 25.2021L22.0836 27.5108L15.1539 31.5106ZM24.478 26.3271L12.527 5.62683C13.5386 5.32208 15.0484 4.89932 16.9273 4.46869L24.5991 26.2881C24.5581 26.2998 24.5171 26.3135 24.478 26.3271ZM27.2183 25.6982L19.5582 3.91406C20.9567 3.64555 22.4859 3.39255 24.1089 3.18655L27.5953 25.6398C27.4663 25.6591 27.3413 25.6787 27.2183 25.6982ZM30.6675 25.3622C30.5269 25.3661 30.3882 25.374 30.2535 25.3799L26.7633 2.90129C28.0269 2.79104 29.3336 2.71379 30.6675 2.68254V25.3622ZM33.3335 25.3584V2.68254C34.6578 2.71379 35.9566 2.78992 37.2145 2.90029L33.7242 25.374C33.5972 25.3701 33.4663 25.3622 33.3335 25.3584ZM36.3843 25.6279L39.8686 3.18442C41.48 3.38955 42.9995 3.63955 44.3922 3.90606L36.7359 25.6825C36.6207 25.6631 36.5034 25.6455 36.3843 25.6279ZM39.355 26.2685L47.0248 4.45982C48.9096 4.89045 50.4291 5.3142 51.4488 5.62096L39.5015 26.3135C39.4546 26.2998 39.4057 26.2841 39.355 26.2685ZM48.8452 31.4637L41.9175 27.4639L53.9174 6.6796L60.8453 10.6797L48.8452 31.4637Z" fill="white"/>
<path d="M53.0718 10.8095C52.7027 11.4473 52.9214 12.2627 53.5601 12.6308C54.1967 12.9989 55.0131 12.7812 55.3803 12.1436C55.7495 11.5058 55.5307 10.6904 54.8921 10.3223C54.2553 9.95302 53.4391 10.1718 53.0718 10.8095Z" fill="white"/>
<path d="M55.2026 15.12C54.564 14.7508 53.7494 14.9696 53.3804 15.6082C53.0132 16.245 53.2301 17.0614 53.8686 17.4285C54.5072 17.7956 55.3217 17.5769 55.6908 16.9402C56.0581 16.3036 55.8393 15.4872 55.2026 15.12Z" fill="white"/>
<path d="M49.56 19.5595C50.1968 19.9287 51.0132 19.7099 51.3803 19.0713C51.7494 18.4326 51.5307 17.6181 50.892 17.249C50.2553 16.8817 49.4389 17.1005 49.0718 17.7373C48.7026 18.3759 48.9214 19.1903 49.56 19.5595Z" fill="white"/>
<path d="M51.2027 22.0478C50.564 21.6787 49.7495 21.8974 49.3804 22.5342C49.0131 23.1748 49.23 23.9873 49.8686 24.3585C50.5073 24.7257 51.3218 24.507 51.6909 23.8702C52.0582 23.2315 51.8394 22.4169 51.2027 22.0478Z" fill="white"/>
<path d="M46.8921 24.1787C46.2553 23.8115 45.4391 24.0283 45.0718 24.667C44.7027 25.3037 44.9214 26.1201 45.5601 26.4873C46.1967 26.8545 47.0131 26.6376 47.3804 25.999C47.7495 25.3622 47.5307 24.5459 46.8921 24.1787Z" fill="white"/>
</svg>
