<svg viewBox="0 0 64 64" fill="none" xmlns="http://www.w3.org/2000/svg">
<path d="M56.1049 5.59785C55.8284 5.59785 55.5998 5.37415 55.5998 5.09767C55.5998 4.82132 55.8186 4.59761 56.0941 4.59761H56.1049C56.3804 4.59761 56.6049 4.82132 56.6049 5.09767C56.6049 5.37415 56.3804 5.59785 56.1049 5.59785Z" fill="white"/>
<path d="M56.1049 8.42651C55.8284 8.42651 55.5998 8.2028 55.5998 7.92645C55.5998 7.64997 55.8186 7.42627 56.0941 7.42627H56.1049C56.3804 7.42627 56.6049 7.64997 56.6049 7.92645C56.6049 8.2028 56.3804 8.42651 56.1049 8.42651Z" fill="white"/>
<path d="M56.1049 11.2553C55.8284 11.2553 55.5998 11.0316 55.5998 10.7551C55.5998 10.4786 55.8186 10.2549 56.0941 10.2549H56.1049C56.3804 10.2549 56.6049 10.4786 56.6049 10.7551C56.6049 11.0316 56.3804 11.2553 56.1049 11.2553Z" fill="white"/>
<path d="M55.0137 14.4386C54.8779 14.4386 54.7413 14.3829 54.6426 14.2745C54.4579 14.0693 54.4735 13.7529 54.6777 13.5674L62.1031 6.84818C62.3073 6.66562 62.6248 6.67925 62.8103 6.88332C62.995 7.08852 62.9794 7.40489 62.7752 7.59045L55.3497 14.3097C55.2541 14.3956 55.1339 14.4386 55.0137 14.4386Z" fill="white"/>
<path d="M50.0615 9.48727C49.9415 9.48727 49.8213 9.44425 49.7256 9.35835C49.5214 9.17278 49.5057 8.85629 49.6904 8.65121L56.4106 1.22576C56.5961 1.02156 56.9145 1.00793 57.1176 1.19062C57.3218 1.37619 57.3375 1.69268 57.1528 1.89775L50.4327 9.32321C50.334 9.43162 50.1973 9.48727 50.0615 9.48727Z" fill="white"/>
<path d="M58.196 2.06194C58.0682 2.06194 57.9402 2.01305 57.8425 1.91539C57.6529 1.72594 57.3247 1.72594 57.1353 1.91539C56.9399 2.11071 56.6234 2.11071 56.4282 1.91539C56.2329 1.72106 56.2329 1.40457 56.4282 1.20825C56.9947 0.639795 57.9833 0.639795 58.5498 1.20825C58.7451 1.40457 58.7451 1.72106 58.5498 1.91539C58.452 2.01305 58.3241 2.06194 58.196 2.06194Z" fill="white"/>
<path d="M62.4392 7.71937C62.3113 7.71937 62.1832 7.67048 62.0856 7.57282C61.8902 7.3775 61.8902 7.06101 62.0856 6.86569C62.2809 6.67037 62.2809 6.35388 62.0856 6.15856C61.8902 5.96324 61.8902 5.64674 62.0856 5.45142C62.2809 5.2561 62.5975 5.2561 62.7928 5.45142C63.3779 6.03651 63.3779 6.98786 62.7928 7.57295C62.6952 7.67048 62.5672 7.71937 62.4392 7.71937Z" fill="white"/>
<path d="M62.4392 6.30498C62.3113 6.30498 62.1832 6.25609 62.0856 6.15843L57.8425 1.91526C57.6472 1.71994 57.6472 1.40345 57.8425 1.20813C58.0378 1.01281 58.3543 1.01281 58.5496 1.20813L62.7928 5.4513C62.9881 5.64662 62.9881 5.96311 62.7928 6.15843C62.6952 6.25622 62.5672 6.30498 62.4392 6.30498Z" fill="white"/>
<path d="M30.2047 30.7585C30.0699 30.7585 29.9361 30.7047 29.8374 30.5973C29.6499 30.3951 29.6626 30.0788 29.8658 29.8912L48.3083 12.863C48.5114 12.6754 48.8278 12.6872 49.0143 12.8914C49.2019 13.0936 49.1891 13.4099 48.9859 13.5975L30.5447 30.6256C30.4479 30.7145 30.3269 30.7585 30.2047 30.7585Z" fill="white"/>
<path d="M32.3272 35.7098C32.205 35.7098 32.083 35.6658 31.9873 35.576C31.7851 35.3885 31.7734 35.0721 31.961 34.8699L50.4024 15.013C50.5909 14.8098 50.9084 14.7992 51.1086 14.9866C51.3118 15.1742 51.3235 15.4907 51.1349 15.6928L32.6935 35.5496C32.5959 35.6561 32.4621 35.7098 32.3272 35.7098Z" fill="white"/>
<path d="M50.0615 12.316C49.9338 12.316 49.8057 12.2672 49.708 12.1696C49.5127 11.9733 49.5127 11.6567 49.708 11.4624C49.9921 11.1781 50.1485 10.802 50.1485 10.4016C50.1485 10.0011 49.9921 9.62507 49.708 9.34084C49.5127 9.14652 49.5127 8.83003 49.708 8.63371C49.9034 8.43839 50.2199 8.43839 50.4152 8.63371C50.8879 9.1055 51.1487 9.73361 51.1487 10.4017C51.1487 11.0698 50.8879 11.6978 50.4152 12.1697C50.3175 12.2672 50.1895 12.316 50.0615 12.316Z" fill="white"/>
<path d="M55.0137 14.4396C54.8858 14.4396 54.7579 14.3907 54.6602 14.293C54.0926 13.7246 53.1043 13.7246 52.5367 14.293C52.3414 14.4883 52.0249 14.4883 51.8296 14.293C51.6342 14.0977 51.6342 13.7812 51.8296 13.5859C52.7732 12.6403 54.42 12.6403 55.3675 13.5859C55.5628 13.7812 55.5628 14.0977 55.3675 14.293C55.2697 14.3907 55.1418 14.4396 55.0137 14.4396Z" fill="white"/>
<path d="M51.4759 15.1457C51.348 15.1457 51.22 15.0968 51.1223 14.9992L49.0007 12.8766C48.8053 12.6813 48.8053 12.3648 49.0007 12.1695C49.196 11.9742 49.5126 11.9742 49.7079 12.1695L51.8294 14.292C52.0248 14.4873 52.0248 14.8038 51.8294 14.9992C51.7318 15.0969 51.6039 15.1457 51.4759 15.1457Z" fill="white"/>
<path d="M49.3543 13.0233C49.2264 13.0233 49.0983 12.9743 49.0007 12.8766C48.8053 12.6813 48.8053 12.3648 49.0007 12.1695L49.7079 11.4624C49.9032 11.267 50.2197 11.267 50.4151 11.4624C50.6104 11.6577 50.6104 11.9742 50.4151 12.1696L49.7079 12.8768C49.6103 12.9744 49.4823 13.0233 49.3543 13.0233Z" fill="white"/>
<path d="M51.4994 15.1233C51.3715 15.1233 51.2435 15.0744 51.1458 14.9768C50.9505 14.7814 50.9505 14.465 51.1458 14.2696L51.8511 13.5635C52.0464 13.3682 52.3629 13.3682 52.5582 13.5635C52.7535 13.7588 52.7535 14.0753 52.5582 14.2706L51.853 14.9768C51.7553 15.0744 51.6272 15.1233 51.4994 15.1233Z" fill="white"/>
<path d="M56.1098 2.80421C55.9818 2.80421 55.8538 2.75532 55.7561 2.65766L54.6602 1.56176C54.4649 1.36644 54.4649 1.04982 54.6602 0.854499C54.8555 0.659178 55.172 0.659178 55.3674 0.854499L56.4634 1.9504C56.6587 2.14572 56.6587 2.46221 56.4634 2.65753C56.3657 2.75532 56.2377 2.80421 56.1098 2.80421Z" fill="white"/>
<path d="M54.3066 2.41557C54.1787 2.41557 54.0506 2.36667 53.953 2.26901C53.7576 2.07369 53.7576 1.7572 53.953 1.56188L55.3675 0.146491C55.5628 -0.0488303 55.8793 -0.0488303 56.0746 0.146491C56.2699 0.341812 56.2699 0.658302 56.0746 0.853623L54.6602 2.26901C54.5626 2.36667 54.4345 2.41557 54.3066 2.41557Z" fill="white"/>
<path d="M53.4216 5.77454C53.2937 5.77454 53.1658 5.72565 53.0681 5.62811L51.8314 4.39054C51.6361 4.19522 51.6361 3.87873 51.8314 3.6834C52.0268 3.48808 52.3433 3.48808 52.5386 3.6834L53.7753 4.92098C53.9706 5.1163 53.9706 5.43279 53.7753 5.62824C53.6776 5.72577 53.5496 5.77454 53.4216 5.77454Z" fill="white"/>
<path d="M51.4779 5.24422C51.35 5.24422 51.222 5.19533 51.1243 5.09767C50.929 4.90235 50.929 4.58586 51.1243 4.39054L52.5387 2.97615C52.734 2.78083 53.0506 2.78083 53.2458 2.97615C53.4412 3.17147 53.4412 3.48796 53.2458 3.68328L51.8314 5.09767C51.7338 5.19533 51.6057 5.24422 51.4779 5.24422Z" fill="white"/>
<path d="M0.50012 35.0027C0.29492 35.0027 0.1036 34.8756 0.0303236 34.6716C-0.0634606 34.4117 0.0713385 34.1256 0.331183 34.0318C17.8917 27.7102 30.785 27.6369 30.9129 27.6369C31.1893 27.6369 31.413 27.8606 31.413 28.1369C31.413 28.4134 31.1893 28.6371 30.9129 28.6371C30.7869 28.6371 18.0538 28.7143 0.670182 34.9736C0.613411 34.9929 0.556765 35.0027 0.50012 35.0027Z" fill="white"/>
<path d="M4.49995 35.7431C4.29 35.7431 4.09368 35.6093 4.02528 35.3982C3.93925 35.1355 4.08192 34.8533 4.34465 34.7672C14.8567 31.3309 23.3409 30.2037 27.4619 29.8383C27.7442 29.8266 27.9805 30.0171 28.004 30.2925C28.0284 30.5669 27.8253 30.8102 27.5508 30.8345C23.4719 31.1968 15.0736 32.3125 4.65526 35.7184C4.60449 35.7352 4.55172 35.7431 4.49995 35.7431Z" fill="white"/>
<path d="M29.4976 64C29.4419 64 29.3843 63.9902 29.3286 63.9707C29.0688 63.877 28.934 63.5909 29.0278 63.331C35.2859 45.9464 35.3631 33.2142 35.3631 33.0882C35.3631 32.8118 35.5868 32.5882 35.8633 32.5882C36.1396 32.5882 36.3633 32.8118 36.3633 33.0882C36.3633 33.2162 36.29 46.1086 29.9684 63.669C29.8951 63.8731 29.7026 64 29.4976 64Z" fill="white"/>
<path d="M17.8281 46.6722C17.7001 46.6722 17.5721 46.6233 17.4744 46.5256C17.2791 46.3303 17.2791 46.0137 17.4744 45.8184L44.404 18.8888C44.5993 18.6935 44.9159 18.6935 45.1111 18.8888C45.3064 19.0841 45.3064 19.4006 45.1111 19.596L18.1816 46.5256C18.084 46.6233 17.9561 46.6722 17.8281 46.6722Z" fill="white"/>
<path d="M29.4976 64C29.3696 64 29.2417 63.9511 29.1439 63.8534L0.146491 34.8561C-0.0488303 34.6608 -0.0488303 34.3442 0.146491 34.149C0.341812 33.9537 0.658302 33.9537 0.853623 34.149L29.8512 63.1463C30.0465 63.3416 30.0465 63.6581 29.8512 63.8534C29.7534 63.9512 29.6255 64 29.4976 64Z" fill="white"/>
<path d="M16.4137 50.209C16.2857 50.209 16.1578 50.1601 16.06 50.0624C15.8647 49.8671 15.8647 49.5506 16.06 49.3553C16.4498 48.9645 16.4498 48.3307 16.06 47.94C15.6703 47.5513 15.0354 47.5513 14.6456 47.94C14.4503 48.1353 14.1337 48.1353 13.9384 47.94C13.7431 47.7447 13.7431 47.4281 13.9384 47.2329C14.7188 46.4535 15.9866 46.4535 16.7672 47.2329C17.5476 48.0133 17.5476 49.2821 16.7672 50.0625C16.6696 50.1602 16.5416 50.209 16.4137 50.209Z" fill="white"/>
<path d="M24.5454 46.3204C24.4175 46.3204 24.2895 46.2715 24.1918 46.1739L17.8272 39.8083C17.6319 39.613 17.6319 39.2964 17.8272 39.1012C18.0225 38.9059 18.339 38.9059 18.5343 39.1012L24.8989 45.4668C25.0942 45.6621 25.0942 45.9786 24.8989 46.1739C24.8012 46.2717 24.6733 46.3204 24.5454 46.3204Z" fill="white"/>
<path d="M27.3838 39.6256C27.2421 39.6256 27.0996 39.6159 26.956 39.5954C26.6825 39.5572 26.4921 39.3043 26.5311 39.0308C26.5692 38.7572 26.8232 38.5687 27.0957 38.6049C27.7287 38.6967 28.342 38.4868 28.7903 38.0384C29.2397 37.59 29.4468 36.9718 29.3569 36.3427C29.3187 36.0691 29.5082 35.8162 29.7817 35.7772C30.0561 35.7391 30.3081 35.9285 30.3472 36.202C30.479 37.132 30.1617 38.0833 29.4974 38.7456C28.9271 39.316 28.1741 39.6256 27.3838 39.6256Z" fill="white"/>
<path d="M24.8999 37.4758C24.6548 37.4758 24.4408 37.2951 24.4047 37.0459C24.2719 36.1033 24.5815 35.1765 25.2545 34.5024C25.9275 33.8294 26.8515 33.5189 27.7979 33.6526C28.0714 33.6916 28.2619 33.9447 28.2228 34.2182C28.1838 34.4916 27.9337 34.6792 27.6574 34.6429C27.0293 34.5511 26.4109 34.7602 25.9616 35.2095C25.5122 35.6588 25.3062 36.277 25.3951 36.9051C25.4341 37.1787 25.2438 37.4317 24.9702 37.4707C24.9468 37.4738 24.9233 37.4758 24.8999 37.4758Z" fill="white"/>
<path d="M32.3272 35.7098C32.1338 35.7098 31.9493 35.5965 31.8682 35.407L29.7455 30.4557C29.6361 30.2017 29.7543 29.9077 30.0084 29.7983C30.2603 29.6889 30.5553 29.807 30.6647 30.0611L32.7873 35.0124C32.8957 35.2663 32.7785 35.5604 32.5245 35.6698C32.4601 35.6971 32.3937 35.7098 32.3272 35.7098Z" fill="white"/>
</svg>
