<svg viewBox="0 0 35 64" fill="none" xmlns="http://www.w3.org/2000/svg">
<path d="M34.2031 0.727894C34.105 0.668734 33.9006 0.588605 33.628 0.745866C32.9585 1.13228 31.4016 2.3342 31.4031 5.12371C31.3926 5.1971 31.2998 5.49066 31.2099 5.77522C30.8752 6.83411 30.2521 8.80587 30.2521 10.3777C30.2521 12.2267 30.0754 12.6618 30.0559 12.7044C29.7474 13.4765 28.8974 15.5643 28.6743 15.9523C28.5979 16.0826 28.4264 16.2481 28.2437 16.4233C28.0557 16.603 27.8468 16.8045 27.6521 17.0434C27.6334 16.7992 27.6169 16.5289 27.6027 16.2541C27.9554 16.0826 28.2684 15.8309 28.517 15.5089C28.9379 14.9623 29.1214 14.2845 29.0322 13.6008C28.9439 12.9171 28.5941 12.3083 28.0482 11.8874L26.2989 10.5395C26.1776 10.4459 26.0488 10.3657 25.9162 10.2961C25.9125 10.2924 25.911 10.2871 25.908 10.2841C25.4879 9.86401 24.9202 9.63261 24.3077 9.63261C23.2091 9.63261 22.13 10.368 21.4193 11.5999C21.3444 11.7294 21.2808 11.862 21.2253 11.9975C21.0943 11.9915 20.9625 11.999 20.8322 12.035C20.4173 12.1488 20.0788 12.4753 19.9021 12.9276C19.7374 13.3492 19.7209 13.848 19.8557 14.3325C20.1021 15.2229 20.7925 15.8459 21.5346 15.8459C21.65 15.8459 21.7653 15.8302 21.8761 15.7995C21.9136 15.789 21.9465 15.7688 21.9824 15.7546C22.3427 16.1537 22.7545 16.4345 23.1372 16.5079C23.2742 16.5341 23.4053 16.5461 23.5296 16.5461C23.7895 16.5461 24.0283 16.4914 24.2418 16.4083L24.0965 17.447C23.4667 17.3489 22.1906 17.1707 21.2523 17.1707C21.0202 17.1707 20.7244 17.1317 20.4001 17.0703C20.3956 17.0696 20.3919 17.0658 20.3866 17.0651C20.3162 17.0531 20.2541 17.0396 20.1859 17.0276C19.0214 16.7827 17.5986 16.3012 17.332 16.2091C17.1328 16.0758 16.0934 15.4221 14.9282 15.4221C14.4429 15.4221 13.2897 15.2363 12.1431 15.0259C11.3771 13.6188 10.4822 12.1039 9.89207 11.5138C8.81296 10.4354 4.95183 6.16463 4.48229 5.64492C3.65929 3.50542 2.13985 0 1.01581 0C0.719259 0 0.460901 0.137042 0.286416 0.386413C-0.332893 1.27232 0.173338 3.5863 0.663843 4.92601C0.934931 5.66514 1.29214 6.2837 1.69203 6.75548C1.69952 6.76821 1.71075 6.77795 1.71974 6.78993C2.16681 7.3059 2.66705 7.6354 3.16879 7.71328C3.33129 8.02855 3.57617 8.57222 3.85325 9.18554C4.42313 10.4481 5.1675 12.0956 5.94332 13.4855C5.39815 13.3537 4.91139 13.2616 4.61035 13.2616C4.45384 13.2616 4.32727 13.2916 4.22468 13.353C4.07116 13.4451 3.98355 13.6001 3.98355 13.7783C3.98355 14.3587 5.27309 15.33 6.05864 15.6273C6.07886 15.6947 6.11256 15.7598 6.15824 15.8205C6.46078 16.2204 7.34219 16.4068 8.07233 16.4503C8.63473 17.4545 9.4772 19.4966 10.3451 21.8421C10.1939 22.3977 10.0748 22.9451 9.97444 23.4873C9.96845 23.512 9.96096 23.536 9.96022 23.5607C8.44227 31.9749 12.892 38.6293 17.1733 41.5274C17.4428 41.7101 17.7064 41.8629 17.9715 42.0224L17.9753 42.0591C17.8877 42.4934 17.3822 45.1489 17.3822 48.3188C17.3822 50.0734 18.0344 51.661 18.6096 53.0614C19.1428 54.3599 19.5988 55.4877 19.4176 56.411C19.0971 56.5982 18.4868 57.0221 18.3976 57.583C18.3647 57.7874 18.3879 58.0945 18.6852 58.3903C18.7893 58.4944 18.9016 58.5992 19.0185 58.7085C19.67 59.3151 20.4083 60.0026 20.4083 61.376C20.4083 62.5981 20.5746 64 21.8656 64C22.6594 64 22.7306 62.8662 22.7942 61.8657C22.8099 61.6089 22.8332 61.2577 22.8564 61.1873C22.902 61.1086 22.905 61.021 22.8886 60.9349C23.1432 59.8753 23.3349 58.3858 22.8466 57.1771C22.1195 55.3806 21.5968 53.0397 21.3744 50.5856C21.2006 48.6663 21.1729 46.5425 21.1692 45.9524C21.4298 45.6813 21.9712 44.9819 22.1494 43.7822C23.3476 44.0795 24.4125 44.1829 25.2602 44.1829C26.5872 44.1829 27.3945 43.9582 27.4282 43.9492C27.6034 43.899 27.718 43.7298 27.6978 43.5478L26.1768 29.6512C26.385 29.4198 26.8643 28.8956 27.3825 28.3766C28.1231 27.636 29.2434 26.5157 29.5602 25.2936C29.6216 25.0554 29.6995 24.8098 29.7781 24.5574C30.0799 23.5944 30.4221 22.5033 30.0994 21.3546C30.0245 21.0895 29.8904 20.8041 29.7309 20.5166L30.0424 19.6209C30.2536 19.2765 31.7776 16.7528 32.143 15.1315C32.3459 14.2299 32.4508 13.5641 32.45 13.2062C32.6425 12.9149 33.0259 12.16 33.0259 10.7641C33.0259 9.26867 33.2491 6.07327 33.2888 5.5251C33.5621 5.02112 34.4892 3.26654 34.4892 2.61353C34.4892 2.48997 34.4967 2.34319 34.5049 2.19042C34.5371 1.49623 34.5641 0.949557 34.2031 0.727894ZM32.5459 5.38881C32.5347 5.53933 32.2763 9.10467 32.2763 10.7634C32.2763 12.2364 31.788 12.8445 31.7866 12.8467C31.7027 12.9426 31.6652 13.0369 31.7004 13.159C31.7019 13.174 31.7371 13.5222 31.4114 14.9668C31.0549 16.5491 29.3999 19.2345 29.3842 19.2615C29.3692 19.2839 29.358 19.3087 29.3483 19.3356L29.2202 19.7093C28.7304 19.0189 28.1875 18.4078 27.8917 18.0903C28.0984 17.6177 28.4451 17.2688 28.7634 16.964C28.9858 16.7513 29.1947 16.5499 29.3243 16.3267C29.6148 15.822 30.6363 13.2713 30.7284 13.0309C30.7928 12.9201 31.0017 12.4004 31.0017 10.3777C31.0017 8.92119 31.6023 7.02133 31.9243 6.00063C32.0966 5.45546 32.1512 5.27723 32.1512 5.14618C32.1512 3.02091 33.148 1.98374 33.7703 1.54266C33.7755 1.73661 33.7628 1.98823 33.7546 2.15073C33.7463 2.31698 33.7388 2.47724 33.7388 2.61128C33.7388 2.93928 33.1435 4.22808 32.5916 5.23455C32.5654 5.28322 32.5504 5.33489 32.5459 5.38881ZM29.0629 24.3328C28.9798 24.5979 28.8989 24.8562 28.8338 25.1063C28.5687 26.1308 27.536 27.1635 26.8523 27.8472C26.4307 28.2688 26.0375 28.6912 25.7859 28.9667C24.1122 27.0017 24.2972 24.177 24.3241 23.8602C24.3691 23.6566 24.3601 23.2754 24.3017 22.8111C24.3084 22.8133 24.3152 22.8148 24.3211 22.8171C24.4192 22.8403 24.5241 22.8253 24.611 22.7714C24.8176 22.6426 26.4292 21.6167 27.0859 20.5188C27.3787 20.8296 27.6304 21.1232 27.7974 21.3493C28.0924 21.747 28.4159 21.8308 28.6361 21.8308C28.9132 21.8308 29.173 21.6923 29.3542 21.4789C29.3632 21.5051 29.37 21.5305 29.3775 21.5567C29.6411 22.4913 29.3468 23.4274 29.0629 24.3328ZM20.5034 42.4627C21.462 40.9935 24.721 35.6458 25.4527 29.9298L26.916 43.2947C26.069 43.4535 23.597 43.7066 20.5034 42.4627ZM21.1565 61.376C21.1565 59.6768 20.2151 58.8006 19.5277 58.1604C19.4176 58.0578 19.3113 57.9589 19.2132 57.8616C19.1248 57.7732 19.1323 57.7245 19.1353 57.7021C19.1682 57.4939 19.5569 57.1876 19.8587 57.0206H19.8602C20.6218 59.0635 21.2763 59.9374 21.8559 60.7117C21.9458 60.8316 22.0334 60.9484 22.1195 61.0682C22.0843 61.2397 22.0686 61.4756 22.0461 61.8201C22.0221 62.1937 21.9682 63.0489 21.8199 63.2519C21.5668 63.2451 21.1565 63.144 21.1565 61.376ZM20.5581 45.5031C20.4705 45.5742 20.4188 45.6806 20.4188 45.7944C20.4188 45.8199 20.4211 48.375 20.6278 50.6538C20.8569 53.1782 21.3976 55.5955 22.1509 57.4587C22.4692 58.2465 22.4348 59.2118 22.2985 60.0527C21.7638 59.3301 21.1632 58.439 20.4668 56.5001C20.4226 56.3773 20.3185 56.2875 20.1964 56.2613C20.2923 55.2039 19.8302 54.0671 19.3008 52.7783C18.7526 51.4416 18.1303 49.9266 18.1303 48.3203C18.1303 45.5922 18.5242 43.2018 18.6672 42.4238C19.6303 42.9412 20.5514 43.3157 21.4141 43.58C21.2433 44.8973 20.5918 45.4746 20.5581 45.5031ZM6.80451 15.4108C6.81724 15.3285 6.79927 15.2408 6.75883 15.1645C6.69742 15.0506 6.57087 14.9757 6.44206 14.9668C6.19119 14.951 5.41762 14.4343 4.99601 14.0494C6.03244 14.2171 8.12475 14.8784 8.9822 15.1652C9.17541 15.2064 13.736 16.1709 14.9267 16.1709C15.9549 16.1709 16.9351 16.8442 16.9973 16.8816C17.0459 16.9056 18.2269 17.4657 20.2616 17.8027C20.3072 17.8109 20.3514 17.8072 20.3941 17.799L20.4001 17.8297C20.7176 17.8851 21.0097 17.9188 21.2501 17.9188C22.261 17.9188 23.7483 18.1479 24.2051 18.2221C24.6259 18.458 25.0633 18.7283 25.4542 19.0031C25.7986 19.2772 26.1701 19.606 26.5355 19.9602C26.2322 20.6469 25.1891 21.4729 24.5383 21.9214L24.0478 21.067C23.6614 20.1474 23.5139 20.1279 23.3544 20.1114C23.3147 20.1062 23.2765 20.1099 23.2368 20.1197C22.461 20.0538 21.6088 19.8755 20.7558 19.6449L20.7566 19.6494C18.8043 19.2203 15.1865 17.7945 15.1483 17.7795C15.1079 17.7638 15.0555 17.7548 15.012 17.7533C14.4976 17.7375 9.64569 16.0122 9.09977 15.7358C9.01365 15.6797 8.90657 15.661 8.80322 15.6857C8.30823 15.8107 7.11005 15.6108 6.80451 15.4108ZM3.7222 7.16736C3.6548 7.05278 3.53273 6.98239 3.39944 6.98239C3.10738 6.98239 2.7352 6.78993 2.36301 6.39304C2.20126 5.5633 2.25967 4.9672 2.54498 4.67889C2.75317 4.46621 3.05721 4.44674 3.2287 4.45573L3.20398 4.49841C3.40842 4.97169 3.61211 5.46894 3.80682 5.97817C3.82254 6.0216 3.848 6.06054 3.87871 6.09499C4.05469 6.29044 8.20339 10.8862 9.36113 12.0432C9.82467 12.5067 10.5264 13.66 11.1876 14.8462C10.0868 14.6335 9.18589 14.4441 9.18065 14.4441C8.99044 14.3796 8.00344 14.0509 6.96702 13.7558C6.07138 12.2783 5.15477 10.2497 4.53471 8.87626C4.16253 8.05401 3.89443 7.45867 3.7222 7.16736ZM0.898986 0.815511C0.938676 0.759346 0.967881 0.749611 1.00682 0.748862C1.33932 0.816259 2.08294 2.04664 2.86175 3.73383C2.58992 3.77726 2.27989 3.8851 2.01928 4.1457C1.77515 4.38983 1.62239 4.71933 1.55873 5.1297C1.49283 4.98293 1.42693 4.83316 1.36702 4.66841C0.786657 3.08906 0.568738 1.28879 0.898986 0.815511ZM20.5746 14.1325C20.4847 13.8083 20.4937 13.4683 20.5978 13.2002C20.6502 13.0646 20.7768 12.8265 21.0306 12.7561C21.0771 12.7434 21.1243 12.7374 21.1714 12.7374C21.5653 12.7374 21.9772 13.1523 22.13 13.7019C22.2191 14.0262 22.2109 14.3662 22.106 14.6335C22.0536 14.7698 21.927 15.0079 21.6732 15.0783C21.259 15.1937 20.7453 14.7496 20.5746 14.1325ZM22.58 15.297C22.6684 15.1802 22.7478 15.0529 22.8047 14.9068C22.9694 14.4852 22.9867 13.9865 22.8519 13.502C22.6969 12.9411 22.3539 12.494 21.942 12.2349C21.9795 12.1488 22.0154 12.0619 22.0656 11.9751C22.6414 10.9776 23.4794 10.3822 24.3062 10.3822C24.6709 10.3822 25.0108 10.5028 25.2774 10.7245C25.3171 11.3715 25.3291 12.2791 25.2422 12.5307C25.2265 12.5764 25.1194 12.6925 25.0408 12.7778C24.6461 13.2084 23.9939 13.9206 24.4207 15.4078C24.2785 15.5658 23.8748 15.8879 23.2765 15.7725C23.0833 15.7351 22.8287 15.5599 22.58 15.297ZM27.9239 15.0514C27.3241 15.8279 26.1319 15.986 25.3523 15.3839L25.1554 15.2326C24.8304 14.1295 25.249 13.6592 25.5935 13.2833C25.7432 13.1201 25.8848 12.9665 25.9507 12.7756C26.057 12.4686 26.066 11.826 26.0525 11.2966L27.5907 12.4813C27.9786 12.7793 28.2272 13.2122 28.2901 13.6967C28.3523 14.1827 28.222 14.6635 27.9239 15.0514ZM25.1509 16.1432C25.5493 16.3829 25.9986 16.5147 26.4696 16.5147C26.6037 16.5147 26.7317 16.4899 26.8613 16.4697C26.9534 18.1779 27.0919 18.3411 27.181 18.4302L27.2522 18.5051C27.8872 19.1881 28.8166 20.4716 28.86 20.7809L28.8413 20.8947C28.8016 20.9958 28.714 21.0835 28.6346 21.0835C28.5679 21.0835 28.4818 21.0183 28.3987 20.906C28.1381 20.5533 27.6985 20.0613 27.2177 19.5827C26.9938 19.2188 26.388 18.747 25.902 18.404C25.5058 18.0903 25.1456 17.8499 24.8184 17.6716L25.0311 16.1515L25.1509 16.1432ZM10.7173 30.1761C11.732 30.3903 12.737 30.4892 13.7135 30.4892C18.5886 30.4892 22.744 28.2051 24.0456 27.4091C24.0995 27.5596 24.1594 27.7109 24.2245 27.8614C23.1971 28.468 16.3323 32.6406 13.8378 37.2484C12.409 35.3223 11.2483 32.926 10.7173 30.1761ZM14.9132 18.4909C15.2262 18.6137 17.0744 19.3349 18.799 19.8815C20.7992 21.082 22.6961 22.5093 23.5708 23.8872C23.5618 24.0108 23.5521 24.2055 23.5521 24.4638C21.9038 23.4985 15.6658 19.9474 12.0233 19.2914C12.2255 18.8129 12.4524 18.3291 12.6973 17.8416C13.6985 18.1711 14.5814 18.437 14.9132 18.4909ZM23.0338 20.8491C23.2652 21.3665 23.4188 22.0128 23.5064 22.5655C22.8758 21.857 22.0596 21.1673 21.1617 20.5166C21.8027 20.6701 22.4348 20.7892 23.0338 20.8491ZM20.9655 26.3614C22.2917 26.3614 23.2727 26.2633 23.7228 26.2072C23.7513 26.3562 23.7857 26.5082 23.8239 26.6632C22.6534 27.3919 16.709 30.8127 10.5825 29.3786C10.3451 27.7349 10.3339 25.975 10.623 24.1216C14.4272 25.9645 18.358 26.3614 20.9655 26.3614ZM11.9747 17.6005C11.6736 18.2048 11.4108 18.8032 11.1726 19.3955C11.1629 19.412 11.1584 19.43 11.1509 19.4479C10.9892 19.8538 10.8379 20.2575 10.7046 20.6566C10.1062 19.0818 9.46222 17.5249 8.89683 16.4585C9.4435 16.7079 10.7203 17.1752 11.9747 17.6005ZM11.738 20.0029C15.6793 20.6244 23.4884 25.2951 23.5678 25.3437C23.5775 25.349 23.588 25.3475 23.5977 25.352C23.6015 25.3902 23.6037 25.4261 23.6082 25.4643C22.3262 25.6148 16.3038 26.1211 10.7615 23.363C10.9779 22.2719 11.2984 21.1501 11.738 20.0029ZM14.3583 37.8647C16.5674 33.4457 23.4555 29.1951 24.566 28.5309C24.6417 28.6619 24.7195 28.7922 24.8064 28.9203C24.3518 34.9045 20.6435 40.8796 19.8055 42.1609C19.0911 41.8292 18.3512 41.4218 17.5926 40.9081C16.4798 40.1547 15.3558 39.1348 14.3373 37.8887C14.3418 37.8782 14.353 37.8744 14.3583 37.8647Z" fill="white"/>
</svg>
