<svg viewBox="0 0 61 64" fill="none" xmlns="http://www.w3.org/2000/svg">
<path d="M15.8722 41.5949C16.3553 41.9354 16.4741 42.6007 16.1336 43.0838C15.9277 43.3847 15.595 43.5431 15.2624 43.5431C15.0486 43.5431 14.8347 43.4798 14.6526 43.3531C14.3675 43.1551 7.61979 38.3477 6.96245 31.6951C6.62981 28.3688 7.87323 25.2088 10.6452 22.2864C13.5597 19.2293 16.6009 17.7958 19.6896 17.9859C24.2989 18.3027 27.1896 22.2309 27.3084 22.3972C27.6569 22.8724 27.546 23.5456 27.0709 23.8862C26.5957 24.2267 25.9304 24.1237 25.5819 23.6486C25.5582 23.6169 23.1347 20.3539 19.5312 20.1163C17.1077 19.9342 14.6526 21.1855 12.1974 23.7594C9.87694 26.1987 8.83152 28.7964 9.09288 31.4733C9.63143 37.136 15.8089 41.5473 15.8722 41.5949ZM43.251 29.0657C42.5937 30.3566 41.675 31.2357 40.5029 31.703C39.8534 31.9564 39.1961 32.0594 38.5704 32.0594C37.62 32.0594 36.7409 31.8376 36.0757 31.6001C35.648 33.8889 36.8122 35.9005 37.8022 37.5716L38.5308 38.8071C40.1465 41.4998 43.1481 46.5051 41.1444 50.8056C39.7188 53.8547 36.0361 55.8822 30.1833 56.8167C30.1279 56.8247 30.0725 56.8326 30.017 56.8326C29.9616 56.8326 29.9061 56.8247 29.8507 56.8167C23.998 55.8822 20.3073 53.8626 18.8897 50.8056C16.886 46.5051 19.8876 41.4998 21.5032 38.8071L22.2318 37.5716C23.2297 35.8926 24.386 33.8889 23.9584 31.6001C23.2931 31.8297 22.414 32.0594 21.4636 32.0594C20.838 32.0594 20.1727 31.9644 19.5312 31.703C18.3591 31.2437 17.4404 30.3566 16.7909 29.0736C16.4821 29.3508 16.292 29.5647 16.2841 29.5726C15.896 30.024 15.2228 30.0715 14.7793 29.6835C14.3358 29.2954 14.2804 28.6222 14.6684 28.1787C14.7793 28.0441 17.4958 24.9316 20.6875 25.2721C22.4853 25.4543 24.0059 26.6264 25.2018 28.7648C27.5064 32.8831 25.4473 36.3599 24.0851 38.6566L23.3485 39.9079C21.9388 42.2601 19.3174 46.6319 20.838 49.9027C21.9309 52.247 25.0196 53.8547 30.0329 54.6784C35.0461 53.8547 38.1348 52.247 39.2278 49.9027C40.7484 46.6319 38.1269 42.2601 36.7172 39.9079L35.9806 38.6645C34.6184 36.3599 32.5593 32.8831 34.8639 28.7648C36.0598 26.6264 37.5804 25.4543 39.3782 25.2721C42.5699 24.9316 45.2785 28.0441 45.3973 28.1787C45.7854 28.6222 45.7299 29.2954 45.2864 29.6835C44.8429 30.0715 44.1618 30.024 43.7817 29.5726C43.647 29.4459 43.4649 29.2637 43.251 29.0657ZM23.1981 29.6043C22.3902 28.2579 21.4795 27.5055 20.4736 27.4026C19.8163 27.3471 19.1748 27.5451 18.5887 27.8302C19.0164 28.7806 19.5945 29.4221 20.3311 29.7151C21.3131 30.1111 22.4378 29.8656 23.1981 29.6043ZM41.4691 27.8223C40.8672 27.5293 40.2098 27.3392 39.5762 27.4026C38.5704 27.5055 37.6596 28.2579 36.8597 29.6043C37.62 29.8735 38.7447 30.1111 39.7346 29.7151C40.4633 29.4221 41.0414 28.7727 41.4691 27.8223ZM59.5658 42.5056C57.3404 54.124 31.4822 63.5407 30.3813 63.9366C30.2625 63.9762 30.1437 64 30.017 64C29.8903 64 29.7715 63.9762 29.6527 63.9366C28.5519 63.5407 2.70159 54.124 0.468201 42.5056C-1.53551 32.0594 3.47773 19.9262 4.49939 17.6137C3.8262 15.2456 1.00675 3.556 9.56015 0.593986C10.7085 0.197995 11.8648 0 13.0053 0C19.3174 0 23.4673 5.93986 24.5365 7.65846L30.0091 8.61675L35.4817 7.65846C36.5509 5.93986 40.7008 0 47.0129 0C48.1534 0 49.3176 0.197995 50.466 0.593986C59.0194 3.556 56.1999 15.2456 55.5267 17.6137C56.5563 19.9262 61.5696 32.0515 59.5658 42.5056ZM53.428 18.1364C53.3171 17.8909 53.3013 17.6137 53.3805 17.3602C53.4201 17.2414 57.1424 5.1558 49.777 2.60562C48.8583 2.28883 47.9316 2.13043 47.0288 2.13043C41.0493 2.13043 37.1369 9.06818 37.1053 9.13946C36.9469 9.42458 36.6697 9.62257 36.3529 9.67801L30.215 10.7472C30.0962 10.7709 29.9695 10.7709 29.8428 10.7472L23.7049 9.67801C23.3881 9.62257 23.1109 9.42458 22.9525 9.14738C22.913 9.0761 18.9768 2.13835 13.0211 2.13835C12.1182 2.13835 11.1916 2.29675 10.2729 2.61354C2.88374 5.17164 6.62982 17.2494 6.66941 17.3681C6.74861 17.6216 6.73277 17.8988 6.6219 18.1443C6.55854 18.2789 0.539479 31.4337 2.58279 42.1096C4.45187 51.851 26.8887 60.6103 30.0249 61.7904C33.1612 60.6103 55.598 51.8431 57.4671 42.1017C59.5183 31.41 53.4913 18.271 53.428 18.1364ZM40.3761 17.978C35.7668 18.2948 32.8761 22.223 32.7573 22.3893C32.4088 22.8645 32.5197 23.5377 32.9949 23.8782C33.4701 24.2188 34.1353 24.1158 34.4838 23.6406C34.5076 23.609 36.931 20.346 40.5345 20.1084C42.9342 19.9342 45.4131 21.1776 47.8683 23.7515C50.1888 26.1908 51.2342 28.7885 50.9728 31.4654C50.4105 37.1439 44.241 41.5473 44.1776 41.5949C43.6945 41.9354 43.5757 42.6007 43.9163 43.0838C44.1222 43.3847 44.4548 43.5431 44.7875 43.5431C45.0013 43.5431 45.2151 43.4798 45.3973 43.3531C45.6824 43.1551 52.4301 38.3477 53.0874 31.6951C53.4201 28.3688 52.1767 25.2088 49.4047 22.2864C46.4982 19.2135 43.4569 17.78 40.3761 17.978ZM28.7974 37.7537C29.328 37.7537 29.7715 37.8092 30.0249 37.8567C30.2863 37.8092 30.7219 37.7537 31.2525 37.7537C33.5493 37.7537 35.2124 38.7833 35.9252 40.6603C37.1132 43.7649 35.2045 45.5548 34.0244 46.0695C33.8819 46.1329 33.7393 46.1567 33.5968 46.1567C33.2245 46.1567 32.8682 45.9666 32.6702 45.626C32.5989 45.4993 32.2425 45.0321 31.894 45.0321C31.6802 45.0321 31.3951 45.2063 31.0941 45.5072V49.8473C32.7652 49.6731 33.8423 49.1504 33.8502 49.1504C34.3808 48.889 35.0223 49.0949 35.2837 49.6255C35.553 50.1482 35.3471 50.7898 34.8243 51.059C34.7451 51.0986 32.8523 52.0569 30.0249 52.0569C27.1976 52.0569 25.3047 51.1065 25.2255 51.059C24.7028 50.7898 24.489 50.1483 24.7583 49.6176C25.0275 49.087 25.669 48.889 26.1918 49.1504C26.2313 49.1662 27.3005 49.681 28.9478 49.8473V45.5072C28.6469 45.2063 28.3618 45.0321 28.1479 45.0321C27.7995 45.0321 27.4431 45.4993 27.3718 45.626C27.0946 46.0854 26.5165 46.2834 26.0254 46.0695C24.8454 45.5627 22.9288 43.7728 24.1247 40.6603C24.8375 38.7833 26.5006 37.7537 28.7974 37.7537ZM26.2789 43.6461C26.7224 43.258 27.348 42.8937 28.1479 42.8937C28.7895 42.8937 29.423 43.1313 30.017 43.5986C30.6189 43.1313 31.2446 42.8937 31.8861 42.8937C32.6939 42.8937 33.3196 43.258 33.7552 43.6461C34.0957 43.2422 34.3492 42.5452 33.9136 41.4285C33.5255 40.4148 32.6226 39.9 31.2367 39.9C30.6744 39.9 30.2546 39.9951 30.2467 39.9951C30.0883 40.0267 29.922 40.0267 29.7636 39.9951C29.7636 39.9951 29.3438 39.9 28.7815 39.9C27.3956 39.9 26.4927 40.4148 26.1046 41.4285C25.6928 42.5452 25.9383 43.2343 26.2789 43.6461Z" fill="white"/>
</svg>
