<svg viewBox="0 0 60 64" fill="none" xmlns="http://www.w3.org/2000/svg">
<path d="M1.65782 39.7343C0.627311 42.786 0.0688278 45.9771 0.00167319 49.1974C-0.0770502 56.007 2.62355 60.8878 7.81122 63.3131C8.70049 63.7233 9.66849 63.9348 10.6478 63.9329H26.4307C27.4443 63.9399 28.4459 63.713 29.3576 63.2698C30.0018 62.9562 30.5798 62.5219 31.0604 61.9906C31.6988 62.8815 32.8289 63.9331 34.6041 63.9331H39.419C40.1737 63.9386 40.9073 63.6841 41.4963 63.2124C42.0854 62.7406 42.494 62.0803 42.6534 61.3427C42.8093 60.5751 42.6863 59.8172 42.5672 59.0843C42.5221 58.8062 42.4794 58.5437 42.4524 58.2851C42.3311 57.3156 42.2778 56.3389 42.2928 55.3621C42.294 55.1969 42.2954 55.0196 42.2954 54.8191V53.813C42.2997 53.7463 42.3109 53.5744 42.3255 53.321C42.4118 52.4956 42.7736 51.7234 43.3526 51.1289C43.7455 50.7384 44.2239 50.4448 44.75 50.2712C44.8777 50.2318 47.9141 49.2427 51.0296 45.7999C51.1671 45.6447 51.2379 45.4415 51.2265 45.2344C51.215 45.0273 51.1224 44.8331 50.9686 44.694C50.8148 44.5548 50.6123 44.482 50.4051 44.4913C50.1979 44.5006 50.0028 44.5913 49.8621 44.7437C47.0524 47.8485 44.3009 48.7617 44.2639 48.7735C43.597 48.9929 42.9819 49.346 42.4562 49.8113C42.4794 48.2866 42.4515 46.6606 42.2858 45.5781C42.2541 45.3717 42.1418 45.1864 41.9736 45.0628C41.8053 44.9392 41.5948 44.8875 41.3884 44.9191C41.182 44.9507 40.9966 45.063 40.873 45.2313C40.7495 45.3996 40.6978 45.6101 40.7294 45.8165C41.0218 47.7255 40.8384 51.6985 40.756 53.1694C40.7327 53.3743 40.7208 53.5802 40.7203 53.7864V54.8195C40.7203 55.0163 40.719 55.1895 40.7178 55.3508C40.7023 56.3861 40.7584 57.4213 40.8859 58.4488C40.9175 58.7517 40.9658 59.0491 41.0126 59.3364C41.1132 59.9571 41.2094 60.5436 41.111 61.029C41.0245 61.411 40.8091 61.7516 40.5011 61.9936C40.193 62.2356 39.8111 62.3642 39.4194 62.3578H34.6051C32.6961 62.3578 31.8988 60.311 31.8669 60.2266C31.8626 60.2146 31.8563 60.2037 31.8512 60.1921C31.8482 60.185 31.8472 60.1778 31.8441 60.1709C30.4286 57.081 29.6648 47.0044 29.6572 46.9028C29.6572 46.893 29.6556 46.8832 29.6546 46.8737C29.2919 43.6356 28.4362 41.5676 28.3999 41.4812C28.3193 41.2886 28.1655 41.1359 27.9723 41.0567C27.7791 40.9775 27.5623 40.9783 27.3697 41.0589C27.1771 41.1395 27.0244 41.2934 26.9453 41.4866C26.8661 41.6798 26.8669 41.8965 26.9475 42.0891C26.9556 42.1088 27.7517 44.046 28.089 47.0347C28.0941 47.1014 28.1087 47.2817 28.1303 47.5537C26.7649 47.6928 25.7513 48.4623 25.1306 49.1039C24.542 48.4056 23.8824 47.7704 23.1625 47.2085C21.6332 45.9384 19.7072 45.2443 17.7193 45.2469H17.68C17.6893 44.7222 17.657 44.1977 17.5834 43.6781C17.5659 43.5654 17.5242 43.4578 17.4611 43.3628C17.398 43.2678 17.315 43.1876 17.2179 43.1279C17.1207 43.0681 17.0117 43.0302 16.8985 43.0167C16.7852 43.0032 16.6704 43.0145 16.5619 43.0497C14.9835 43.5927 13.5216 44.4287 12.2532 45.5138C12.1007 45.6541 12.0096 45.8488 11.9998 46.0558C11.9899 46.2628 12.0621 46.4654 12.2007 46.6195C12.3392 46.7736 12.5329 46.8669 12.7398 46.879C12.9467 46.8912 13.15 46.8214 13.3057 46.6846C14.1542 45.9687 15.0968 45.3724 16.1071 44.9123C16.1198 45.2567 16.0953 45.6015 16.0341 45.9406C16.0087 46.0667 16.0145 46.197 16.0509 46.3202C16.0874 46.4435 16.1534 46.556 16.2432 46.6479C16.3331 46.7399 16.444 46.8085 16.5664 46.8478C16.6888 46.8871 16.8189 46.8959 16.9455 46.8735C17.876 46.7602 18.8198 46.8398 19.7181 47.1073C20.6165 47.3748 21.4501 47.8244 22.167 48.4283C22.1763 48.436 22.1857 48.4433 22.1952 48.4505C22.623 48.7753 23.8535 49.8298 24.401 50.7987C24.4686 50.9184 24.5664 51.0183 24.6846 51.0884C24.8029 51.1586 24.9374 51.1966 25.0749 51.1986H25.0863C25.2218 51.1986 25.3551 51.1636 25.4731 51.097C25.5912 51.0305 25.69 50.9345 25.7601 50.8185C25.7704 50.8012 26.696 49.3009 28.2714 49.1232C28.5684 52.1934 29.2246 57.8037 30.2541 60.4478C29.8643 61.0585 29.3111 61.5476 28.6572 61.8595C27.9636 62.1942 27.2022 62.3646 26.4321 62.3574H10.6478C9.89883 62.3594 9.15839 62.1982 8.47801 61.8851C3.83609 59.7147 1.51395 55.4642 1.57575 49.2519C1.64501 46.1957 2.17215 43.1671 3.13959 40.2672C5.73175 32.9401 10.1019 28.3228 13.3114 25.7392C16.801 22.9306 19.7173 21.8458 19.7455 21.8354C19.9036 21.7779 20.0391 21.6712 20.1322 21.5311C20.2253 21.3909 20.271 21.2246 20.2627 21.0566C20.2544 20.8885 20.1925 20.7276 20.086 20.5973C19.9795 20.4671 19.8341 20.3743 19.6711 20.3327C19.4559 20.2696 19.2564 20.162 19.0854 20.0168C23.6846 14.7607 28.6454 12.0888 32.0448 10.7669C32.1426 10.7304 32.2321 10.6749 32.3082 10.6036C32.3844 10.5322 32.4455 10.4465 32.4882 10.3513C32.5309 10.2561 32.5542 10.1534 32.5569 10.0491C32.5595 9.94479 32.5414 9.84101 32.5036 9.74379C32.4658 9.64656 32.409 9.55782 32.3366 9.48272C32.2642 9.40763 32.1775 9.34768 32.0817 9.30635C31.986 9.26503 31.8829 9.24315 31.7786 9.242C31.6743 9.24085 31.5708 9.26045 31.4741 9.29965C27.7904 10.7328 22.3619 13.6723 17.423 19.5368C17.311 19.6698 17.2462 19.836 17.2386 20.0096C17.231 20.1832 17.2811 20.3545 17.381 20.4967C17.5064 20.6693 17.6464 20.8308 17.7996 20.9792C15.8724 21.9442 14.0549 23.1144 12.3789 24.4696C8.99148 27.1826 4.38145 32.0359 1.65782 39.7343Z" fill="white"/>
<path d="M31.6502 18.8891C31.7332 18.9625 31.8308 19.0176 31.9365 19.0507C32.0423 19.0838 32.1538 19.0942 32.2639 19.0812L33.6159 18.922C33.7811 21.8533 35.0032 23.5169 35.0601 23.5929C35.1333 23.6903 35.2281 23.7695 35.337 23.8241C35.446 23.8787 35.5661 23.9074 35.6879 23.9077H35.6901C35.8116 23.9077 35.9314 23.8796 36.0402 23.8255C36.1489 23.7715 36.2437 23.693 36.3171 23.5962L36.9977 22.6991C37.3452 23.3058 37.7395 23.8844 38.177 24.4297C38.3079 24.5924 38.4981 24.6964 38.7057 24.7188C38.9132 24.7413 39.1213 24.6804 39.2839 24.5494C39.4466 24.4185 39.5506 24.2284 39.5731 24.0208C39.5955 23.8132 39.5346 23.6052 39.4037 23.4425C38.7806 22.6613 38.2546 21.8074 37.8373 20.8995C37.7801 20.7764 37.6921 20.6701 37.5817 20.5911C37.4714 20.512 37.3424 20.4628 37.2074 20.4483C37.0725 20.4338 36.936 20.4544 36.8114 20.5082C36.6867 20.562 36.5781 20.6471 36.496 20.7553L35.8088 21.6606C35.3527 20.5144 35.1367 19.2869 35.1741 18.0539C35.1763 17.9414 35.1544 17.8298 35.1099 17.7265C35.0654 17.6233 34.9992 17.5307 34.9159 17.4552C34.8326 17.3796 34.7341 17.3228 34.627 17.2885C34.5199 17.2542 34.4066 17.2433 34.2949 17.2564L33.0226 17.406C33.1971 15.8768 33.8525 12.6444 36.3093 9.86626C36.3869 9.77848 36.4439 9.67448 36.4763 9.56185C36.5086 9.44922 36.5153 9.33079 36.496 9.21522C36.1432 7.09776 36.2567 5.18537 36.8336 3.531C37.0015 3.03362 37.3028 2.5919 37.7046 2.25404C38.1063 1.91618 38.5932 1.69516 39.112 1.61507C39.6127 1.53012 40.1271 1.58431 40.5991 1.77172C41.0711 1.95913 41.4826 2.27257 41.7886 2.67783C42.3209 3.39244 42.741 4.18406 43.0346 5.02536C43.1002 5.20788 43.2304 5.36005 43.4006 5.45313C43.5708 5.54621 43.7691 5.57376 43.9582 5.53057C44.7415 5.45598 45.53 5.45598 46.3132 5.53057C46.5024 5.57529 46.7015 5.54842 46.872 5.45514C47.0426 5.36187 47.1726 5.20878 47.2371 5.02536C47.5307 4.18411 47.9509 3.39252 48.483 2.67783C48.7891 2.27262 49.2006 1.95922 49.6726 1.77181C50.1446 1.5844 50.659 1.53019 51.1596 1.61507C51.6788 1.6949 52.1661 1.91588 52.5682 2.25387C52.9703 2.59186 53.2718 3.03386 53.4397 3.53159C54.0167 5.18596 54.1301 7.09835 53.777 9.21581C53.7577 9.33141 53.7644 9.44988 53.7967 9.56255C53.8291 9.67521 53.8861 9.77925 53.9638 9.86705C56.4097 12.6324 57.07 15.8738 57.2483 17.4064L55.9783 17.257C55.8666 17.2439 55.7534 17.2548 55.6463 17.2891C55.5391 17.3234 55.4406 17.3802 55.3573 17.4558C55.274 17.5313 55.2079 17.6239 55.1633 17.7271C55.1188 17.8304 55.0969 17.942 55.0992 18.0545C55.1364 19.2875 54.9204 20.5151 54.4644 21.6614L53.777 20.7561C53.692 20.6441 53.5786 20.557 53.4486 20.5036C53.3185 20.4503 53.1766 20.4328 53.0375 20.4529C52.8984 20.473 52.7672 20.5299 52.6575 20.6179C52.5479 20.7058 52.4637 20.8215 52.4139 20.9529C52.1431 21.6691 51.7944 22.3533 51.3742 22.9934C51.2597 23.1677 51.2191 23.3802 51.2612 23.5844C51.3033 23.7886 51.4247 23.9678 51.5988 24.0826C51.7728 24.1974 51.9853 24.2385 52.1896 24.1968C52.3939 24.1551 52.5733 24.0341 52.6885 23.8603C52.9207 23.508 53.1337 23.1434 53.3265 22.768L53.9563 23.5978C54.0297 23.6946 54.1245 23.7731 54.2334 23.8271C54.3422 23.8812 54.462 23.9093 54.5835 23.9093H54.5855C54.7074 23.909 54.8275 23.8804 54.9365 23.8258C55.0454 23.7711 55.1402 23.6919 55.2133 23.5944C55.2702 23.5185 56.4926 21.8548 56.6575 18.9236L58.0094 19.0828C58.1194 19.0958 58.2309 19.0854 58.3367 19.0522C58.4424 19.0191 58.54 18.9641 58.623 18.8907C58.706 18.8173 58.7725 18.7272 58.8183 18.6263C58.8641 18.5254 58.8881 18.416 58.8887 18.3052C58.7591 14.9389 57.5295 11.7078 55.3881 9.10717C55.7124 6.86965 55.5577 4.82127 54.9271 3.0132C54.6623 2.24963 54.1957 1.57201 53.5768 1.05225C52.9579 0.532492 52.2098 0.189982 51.4119 0.0610699C50.6307 -0.0714949 49.8281 0.0130527 49.0917 0.305487C48.3553 0.597921 47.7133 1.08701 47.2359 1.71938C46.7257 2.39726 46.3031 3.13688 45.9783 3.92068C45.4179 3.89214 44.8565 3.89214 44.2961 3.92068C43.9716 3.13677 43.549 2.39711 43.0385 1.71938C42.5611 1.08691 41.9192 0.597749 41.1827 0.305307C40.4462 0.0128644 39.6435 -0.0716224 38.8623 0.0610699C38.0645 0.190028 37.3165 0.53256 36.6977 1.05232C36.0788 1.57208 35.6123 2.24967 35.3475 3.0132C34.7177 4.82108 34.5622 6.87064 34.8865 9.10717C32.7452 11.7073 31.5154 14.9378 31.3853 18.3036C31.3858 18.4144 31.4097 18.5238 31.4553 18.6246C31.501 18.7255 31.5674 18.8157 31.6502 18.8891Z" fill="white"/>
<path d="M40.8449 26.8896C42.5648 28.0449 43.9939 28.3249 44.0529 28.3361C44.1807 28.3605 44.3126 28.3528 44.4367 28.3136C44.5608 28.2744 44.6732 28.205 44.7638 28.1116L45.405 27.4521L45.9936 28.1427C46.0675 28.2294 46.1594 28.299 46.2628 28.3467C46.3662 28.3945 46.4788 28.4192 46.5927 28.4192C46.6616 28.4191 46.7302 28.4101 46.7968 28.3924C48.0277 28.0018 49.1755 27.3863 50.1819 26.5771C50.3463 26.4483 50.4528 26.2594 50.478 26.0521C50.5032 25.8448 50.445 25.6359 50.3162 25.4715C50.1874 25.3071 49.9986 25.2005 49.7913 25.1754C49.5839 25.1502 49.3751 25.2084 49.2106 25.3372C48.4898 25.9045 47.6924 26.3671 46.8421 26.7111L46.0416 25.7723C45.9705 25.689 45.8828 25.6215 45.7841 25.5741C45.6853 25.5266 45.5778 25.5003 45.4683 25.4968C45.3588 25.4938 45.2499 25.5133 45.1483 25.5543C45.0467 25.5953 44.9547 25.6568 44.8779 25.7349L43.9565 26.6824C43.1639 26.422 42.4118 26.0518 41.7221 25.5826C41.6363 25.5249 41.5399 25.4848 41.4386 25.4643C41.3372 25.4439 41.2329 25.4437 41.1314 25.4636C40.9265 25.5038 40.746 25.6238 40.6296 25.7971C40.5132 25.9704 40.4704 26.1829 40.5106 26.3878C40.5508 26.5927 40.6708 26.7732 40.8441 26.8896H40.8449Z" fill="white"/>
<path d="M41.8772 5.51384C41.7736 5.1609 41.6482 4.81476 41.5015 4.47745C41.322 4.05691 41.0102 3.70639 40.6135 3.47908C40.2167 3.25177 39.7567 3.16006 39.3031 3.21788C38.8487 3.26704 38.4233 3.46516 38.0933 3.78135C37.7633 4.09755 37.5471 4.51404 37.4785 4.96593C37.3469 5.82477 37.3612 6.69966 37.5206 7.55376C37.543 7.68277 37.5972 7.80416 37.6783 7.90694C37.7594 8.00972 37.8649 8.09064 37.9852 8.14239C38.1054 8.19413 38.2367 8.21506 38.3671 8.20328C38.4975 8.1915 38.6229 8.14737 38.732 8.07491C38.7499 8.0633 40.5157 6.89209 41.4625 6.43313C41.6283 6.35267 41.7606 6.21659 41.8364 6.04861C41.9121 5.88062 41.9266 5.69138 41.8772 5.51384ZM38.9632 6.05644C38.9637 5.77829 38.9865 5.50062 39.0313 5.22611C39.0461 5.11015 39.1002 5.00276 39.1845 4.9218C39.2689 4.84084 39.3784 4.7912 39.4948 4.78112C39.5177 4.77829 39.5408 4.77691 39.5639 4.77699C39.6698 4.77404 39.7741 4.8039 39.8624 4.86249C39.9506 4.92108 40.0187 5.00554 40.0571 5.10428C40.0933 5.18714 40.1264 5.26803 40.1555 5.34459C39.7633 5.56521 39.3391 5.82224 38.9632 6.05644Z" fill="white"/>
<path d="M51.9109 8.20716C52.0963 8.20717 52.2757 8.14173 52.4176 8.02238C52.5595 7.90302 52.6547 7.73742 52.6865 7.55474C52.846 6.70059 52.8603 5.82563 52.7288 4.96671C52.6602 4.51478 52.4439 4.09826 52.1138 3.78207C51.7837 3.46587 51.3583 3.26778 50.9038 3.21866C50.4503 3.16087 49.9903 3.25259 49.5936 3.47991C49.197 3.70723 48.8853 4.05773 48.7058 4.47824C48.5592 4.81559 48.4337 5.16172 48.3299 5.51463C48.2804 5.69227 48.2948 5.88167 48.3706 6.04978C48.4464 6.2179 48.5789 6.35406 48.7448 6.43451C49.6915 6.89347 51.4574 8.06468 51.4753 8.07629C51.6044 8.1619 51.756 8.20743 51.9109 8.20716ZM50.051 5.34478C50.0811 5.26842 50.1142 5.18734 50.1494 5.10448C50.1932 4.99526 50.2725 4.90398 50.3745 4.84535C50.4765 4.78672 50.5953 4.76416 50.7117 4.78132C50.8281 4.79144 50.9376 4.8411 51.0219 4.92206C51.1062 5.00301 51.1602 5.11038 51.175 5.2263C51.2199 5.50081 51.2427 5.77848 51.2433 6.05664C50.8684 5.82224 50.4439 5.56541 50.051 5.34478Z" fill="white"/>
<path d="M56.4902 34.115C56.9521 31.9991 57.1672 30.402 57.1672 29.0883V28.7061C57.2635 28.7695 57.3726 28.8109 57.4867 28.8274C57.6007 28.844 57.717 28.8353 57.8274 28.8019C57.9377 28.7686 58.0394 28.7114 58.1252 28.6345C58.211 28.5575 58.2789 28.4627 58.3241 28.3566C59.2061 26.0165 59.4909 23.4935 59.1528 21.0156C59.1385 20.9133 59.1042 20.8147 59.0517 20.7256C58.9993 20.6365 58.9299 20.5586 58.8474 20.4963C58.7648 20.434 58.6709 20.3886 58.5708 20.3626C58.4707 20.3367 58.3665 20.3307 58.2641 20.345C58.1617 20.3593 58.0632 20.3937 57.9741 20.4461C57.885 20.4985 57.807 20.568 57.7448 20.6505C57.6825 20.733 57.6371 20.827 57.6111 20.9271C57.5852 21.0271 57.5792 21.1313 57.5935 21.2337C57.8233 22.9894 57.7139 24.7729 57.2711 26.4873C57.1323 26.357 56.9854 26.2355 56.8313 26.1236C56.8139 26.1116 56.7956 26.1022 56.7777 26.0915C56.7675 26.0854 56.7581 26.0787 56.7472 26.073C56.7065 26.0517 56.6639 26.0339 56.6201 26.0199C56.6162 26.0187 56.613 26.0166 56.6091 26.0154C56.602 26.0132 56.5951 26.013 56.5882 26.0112C56.5506 26.0008 56.5122 25.9932 56.4735 25.9886C56.4632 25.9872 56.4538 25.9853 56.4428 25.9845C56.3985 25.9807 56.354 25.9807 56.3097 25.9845C56.2975 25.9845 56.2859 25.9878 56.2737 25.9894C56.2391 25.9942 56.2049 26.0012 56.1712 26.0104C56.1594 26.0136 56.1478 26.0165 56.1361 26.0203C56.0948 26.0333 56.0547 26.0498 56.0161 26.0695L56.0118 26.072C56.0076 26.0744 56.0039 26.0772 55.9997 26.0795C55.964 26.0993 55.9299 26.122 55.8978 26.1472C55.8882 26.1545 55.8791 26.1622 55.8699 26.1701C55.8401 26.1952 55.8123 26.2226 55.7868 26.2519C55.7821 26.2574 55.777 26.262 55.7722 26.2675C55.7436 26.3028 55.7181 26.3405 55.6959 26.3803C55.6904 26.3899 55.6856 26.3999 55.6805 26.4098C55.6615 26.4469 55.6454 26.4855 55.6323 26.5251C55.6307 26.5298 55.6282 26.5338 55.6266 26.5387C53.4952 33.5451 50.2463 36.2429 48.9064 37.0963L48.4144 36.15C48.3569 36.0399 48.2743 35.945 48.1731 35.8729C48.0719 35.8009 47.9552 35.7538 47.8323 35.7355C47.7095 35.7172 47.5841 35.7282 47.4663 35.7677C47.3486 35.8071 47.2418 35.8739 47.1548 35.9625C46.3323 36.8018 44.7026 37.5849 43.9511 37.9187C42.3577 36.7818 40.6842 35.7614 38.9438 34.8656C37.287 34.0361 35.539 33.4031 33.7352 32.9796C28.456 30.9285 28.1262 26.8914 28.1154 26.7241C28.1041 26.5239 28.017 26.3356 27.8716 26.1975C27.7263 26.0594 27.5338 25.9819 27.3333 25.9809C27.1328 25.9799 26.9395 26.0555 26.7928 26.1921C26.6461 26.3287 26.5571 26.5162 26.5438 26.7162C26.5097 27.2699 26.3629 27.8108 26.1124 28.3058C24.131 25.0406 25.439 21.5701 25.5006 21.4112C25.577 21.2169 25.5731 21.0002 25.4897 20.8088C25.4064 20.6174 25.2504 20.4669 25.0561 20.3905C24.8618 20.3141 24.6451 20.318 24.4536 20.4013C24.2622 20.4847 24.1117 20.6407 24.0353 20.835C23.9536 21.0418 22.0757 25.9475 25.4986 30.1602C25.5668 30.2442 25.6517 30.3132 25.7478 30.3629C25.8439 30.4127 25.9492 30.4421 26.0572 30.4493C26.1652 30.4565 26.2735 30.4413 26.3754 30.4048C26.4773 30.3683 26.5705 30.3111 26.6493 30.2369C26.9003 29.9838 27.1192 29.7009 27.3012 29.3944C28.103 31.0426 29.7512 33.1076 33.1229 34.4297C34.5666 35.4148 35.9125 36.5361 37.1422 37.7782C37.1493 37.7855 37.1565 37.7924 37.164 37.7995C43.1547 43.3666 47.4868 43.6955 47.6683 43.7069C47.6846 43.7069 47.7007 43.7084 47.7171 43.7084C47.8688 43.7084 48.0173 43.6645 48.1447 43.5821C50.8463 41.834 52.9604 39.9976 54.6 37.977C54.5863 42.5736 54.6197 50.1429 54.9718 57.7454C55.0101 58.7272 55.2373 59.6923 55.641 60.5881C55.7085 60.7359 55.7676 60.8875 55.8181 61.0419C55.8679 61.1934 55.88 61.3547 55.8534 61.5119C55.8268 61.6691 55.7623 61.8175 55.6654 61.9441C55.5506 62.0956 55.402 62.218 55.2314 62.3017C55.0608 62.3854 54.8729 62.4279 54.6829 62.4259H54.6613L48.5736 62.3247C47.0658 62.2995 45.8484 61.1663 45.8021 59.7448L45.5837 53.0446C45.5803 52.9413 45.5566 52.8395 45.514 52.7453C45.4713 52.6511 45.4105 52.5662 45.335 52.4955C45.2595 52.4247 45.1709 52.3696 45.0741 52.3331C44.9773 52.2967 44.8742 52.2796 44.7709 52.283C44.6675 52.2864 44.5658 52.31 44.4715 52.3527C44.3773 52.3954 44.2924 52.4562 44.2217 52.5317C44.151 52.6071 44.0958 52.6958 44.0593 52.7926C44.0229 52.8894 44.0058 52.9924 44.0092 53.0958L44.2277 59.7961C44.3015 62.0575 46.1985 63.8598 48.5466 63.8988L54.6345 64H54.6819C55.1185 64.0018 55.5493 63.9012 55.94 63.7064C56.3307 63.5116 56.6702 63.2279 56.9314 62.8782C57.1781 62.5501 57.3418 62.1672 57.4084 61.7621C57.475 61.3571 57.4426 60.9419 57.314 60.5521C57.245 60.3412 57.1642 60.1343 57.0722 59.9323C56.7525 59.2198 56.5733 58.4522 56.5445 57.6718C56.106 48.2378 56.1637 38.8433 56.1885 35.1766C56.3104 34.8292 56.4112 34.4746 56.4902 34.115ZM47.5299 42.1023C46.5937 41.9425 42.9978 41.069 38.2453 36.6562C37.9798 36.3897 37.722 36.1412 37.4701 35.9052C37.7208 36.0187 37.9741 36.1398 38.228 36.2689C40.0225 37.1937 41.7426 38.2563 43.3727 39.4471C43.481 39.5289 43.6086 39.5813 43.743 39.5992C43.8775 39.6171 44.0144 39.6 44.1403 39.5495C45.3119 39.0705 46.4287 38.467 47.4713 37.7493L47.8788 38.532C47.968 38.7033 48.117 38.8359 48.2975 38.9045C48.4781 38.9732 48.6775 38.973 48.858 38.9042C49.0351 38.8366 52.4946 37.4478 55.3749 31.5327C55.2712 32.2101 55.132 32.954 54.9519 33.7791C54.7171 34.8648 54.2405 35.8836 53.5576 36.7597C52.0486 38.678 50.0742 40.4276 47.5305 42.1023H47.5299Z" fill="white"/>
<path d="M45.1367 22.338C45.3455 22.338 45.5457 22.2551 45.6934 22.1074C45.841 21.9598 45.924 21.7596 45.924 21.5508V20.5378C46.8292 20.056 47.5996 19.3556 48.1652 18.5002C48.3382 18.2343 48.4484 17.9325 48.4876 17.6176C48.5267 17.3028 48.4938 16.9832 48.3913 16.6829C48.2792 16.3631 48.096 16.073 47.8554 15.8343C47.6148 15.5957 47.3231 15.4148 47.0025 15.3053C45.7954 14.88 44.4792 14.88 43.2722 15.3053C42.9514 15.4147 42.6598 15.5956 42.4192 15.8343C42.1786 16.0729 41.9954 16.3631 41.8833 16.6829C41.7808 16.9831 41.7479 17.3027 41.787 17.6176C41.8261 17.9324 41.9362 18.2342 42.109 18.5002C42.6747 19.3554 43.4451 20.0558 44.3501 20.5378V21.5508C44.3501 21.7595 44.4329 21.9596 44.5804 22.1072C44.7279 22.2548 44.928 22.3378 45.1367 22.338ZM43.4328 17.649C43.3879 17.5826 43.3592 17.5066 43.3489 17.4272C43.3387 17.3477 43.3472 17.2669 43.3737 17.1913C43.4099 17.0961 43.4671 17.0104 43.5411 16.9405C43.6151 16.8706 43.7039 16.8183 43.801 16.7876C44.666 16.4827 45.6092 16.4827 46.4742 16.7876C46.5712 16.8184 46.66 16.8707 46.7339 16.9406C46.8079 17.0105 46.8651 17.0962 46.9013 17.1913C46.9277 17.267 46.936 17.3478 46.9255 17.4273C46.9151 17.5068 46.8862 17.5827 46.8411 17.649C46.4104 18.2925 45.8245 18.8171 45.1375 19.1743C44.4502 18.8172 43.8639 18.2925 43.4328 17.649Z" fill="white"/>
<path d="M40.3726 12.9174C40.8653 13.0615 41.3312 13.2854 41.7516 13.58C41.9186 13.7053 42.1286 13.7591 42.3353 13.7296C42.542 13.7 42.7285 13.5896 42.8537 13.4226C42.979 13.2556 43.0328 13.0456 43.0033 12.8389C42.9737 12.6322 42.8633 12.4457 42.6963 12.3205C42.1145 11.9061 41.4665 11.5937 40.78 11.3964C40.6801 11.3697 40.5759 11.3629 40.4734 11.3763C40.3709 11.3898 40.2721 11.4234 40.1825 11.4751C40.093 11.5268 40.0145 11.5956 39.9516 11.6776C39.8886 11.7596 39.8425 11.8533 39.8157 11.9531C39.7889 12.053 39.7821 12.1571 39.7956 12.2596C39.8091 12.3622 39.8426 12.461 39.8943 12.5505C39.946 12.6401 40.0149 12.7186 40.0969 12.7815C40.1789 12.8444 40.2725 12.8906 40.3724 12.9174H40.3726Z" fill="white"/>
<path d="M50.4568 11.9542C50.4302 11.8542 50.3841 11.7605 50.3212 11.6783C50.2583 11.5962 50.1798 11.5272 50.0903 11.4754C50.0007 11.4236 49.9018 11.39 49.7992 11.3764C49.6967 11.3629 49.5924 11.3697 49.4925 11.3964C48.8063 11.5938 48.1585 11.9062 47.5769 12.3205C47.4942 12.3825 47.4246 12.4602 47.3719 12.5492C47.3192 12.6381 47.2846 12.7366 47.27 12.8389C47.2553 12.9413 47.261 13.0455 47.2867 13.1456C47.3123 13.2458 47.3575 13.3399 47.4195 13.4226C47.4815 13.5053 47.5592 13.575 47.6482 13.6276C47.7372 13.6803 47.8356 13.7149 47.938 13.7296C48.0403 13.7442 48.1445 13.7385 48.2447 13.7128C48.3448 13.6872 48.4389 13.6421 48.5216 13.58C48.9422 13.2855 49.4081 13.0617 49.9009 12.9174C50.1022 12.8632 50.2738 12.7313 50.378 12.5508C50.4823 12.3702 50.5106 12.1556 50.4568 11.9542Z" fill="white"/>
</svg>
