<svg xmlns="http://www.w3.org/2000/svg" viewBox="0 0 41 64" fill="none"><path fill="#fff" fill-rule="evenodd" d="M34.276 36.3a15.68 15.68 0 0 1 1.818 7.35c0 8.694-7.049 15.744-15.744 15.744S4.607 52.344 4.607 43.65c0-2.654.658-5.156 1.818-7.35 6.116-.37 11.328-3.403 13.925-7.69 2.597 4.287 7.81 7.32 13.925 7.69Zm-4.27-25.571c.213.812.326 1.664.326 2.543 0 5.513-4.469 9.983-9.982 9.983-5.513 0-9.982-4.47-9.982-9.983 0-.88.114-1.731.327-2.543.28.02.563.03.85.03 3.859 0 7.198-1.89 8.806-4.64 1.607 2.75 4.946 4.64 8.805 4.64.287 0 .57-.01.85-.03Zm10.587 30.814c.07.693.108 1.395.108 2.107 0 11.239-9.11 20.35-20.35 20.35C9.11 64 0 54.89 0 43.65c0-.648.031-1.288.09-1.92.302-4.422 1.277-8.846 3.447-13.266 2.485-5.063 3.407-10.128 3.54-15.192C7.078 5.942 13.02 0 20.35 0s13.272 5.942 13.272 13.271v.095c.145 5.033 1.07 10.068 3.536 15.098 2.139 4.359 3.118 8.72 3.434 13.079Z" clip-rule="evenodd"/></svg>