<svg viewBox="0 0 41 64" fill="none" xmlns="http://www.w3.org/2000/svg">
<path d="M17.391 27.7639C17.3839 27.8488 17.3789 27.9344 17.3789 28.0214C17.3789 28.4402 17.4681 28.8383 17.6251 29.1994L15.6574 30.1818C15.4226 30.2988 15.327 30.5849 15.444 30.8196C15.5275 30.9865 15.6952 31.0829 15.87 31.0829C15.9413 31.0829 16.0141 31.0665 16.0819 31.0329L18.1437 30.0041C18.549 30.4536 19.0876 30.7796 19.6991 30.9159C19.6363 31.0037 19.5278 31.1456 19.3744 31.3147C19.1212 31.593 18.7459 31.9419 18.2515 32.2344C17.8876 32.4498 17.461 32.6353 16.9701 32.7388C15.6224 33.0234 14.1277 32.6432 12.521 31.6087C12.531 31.5759 12.5417 31.5402 12.5539 31.5031C12.6273 31.2734 12.7429 30.9644 12.9163 30.622C13.512 29.4434 14.7912 27.8723 17.391 27.7639ZM22.2454 28.0207C22.2454 27.9316 22.2375 27.8438 22.2261 27.7575C22.1804 27.4086 22.0449 27.0883 21.8437 26.8186C21.487 26.3406 20.9241 26.0274 20.2877 26.0095C19.6513 26.0274 19.0883 26.3406 18.7316 26.8186C18.5304 27.0883 18.3949 27.4086 18.3492 27.7575C18.3378 27.8438 18.33 27.9308 18.33 28.0207C18.33 29.1123 19.2032 30.002 20.2877 30.032C21.3721 30.002 22.2454 29.1123 22.2454 28.0207ZM22.3238 32.2329C22.6877 32.4484 23.1143 32.6339 23.6052 32.7374C24.9529 33.022 26.4476 32.6418 28.0543 31.6072C28.0443 31.5744 28.0336 31.5388 28.0215 31.5017C27.948 31.2719 27.8324 30.963 27.659 30.6205C27.0633 29.4434 25.7841 27.8723 23.1843 27.7632C23.1914 27.8481 23.1964 27.9337 23.1964 28.0207C23.1964 28.4395 23.1072 28.8376 22.9502 29.1986L24.9179 30.1811C25.1527 30.2981 25.2483 30.5842 25.1313 30.8189C25.0478 30.9858 24.8801 31.0821 24.7053 31.0821C24.634 31.0821 24.5612 31.0657 24.4934 31.0322L22.4316 30.0034C22.0263 30.4529 21.4877 30.7789 20.8763 30.9152C20.939 31.003 21.0475 31.1449 21.2009 31.314C21.4541 31.5916 21.8294 31.9397 22.3238 32.2329ZM27.1432 27.1011C26.6538 27.2145 26.1686 27.3094 25.687 27.3922C27.2481 28.1292 28.1235 29.4162 28.5894 30.3965C29.1437 30.2538 29.6938 30.0969 30.2367 29.9221C30.5563 29.8186 30.8738 29.7095 31.1899 29.5946C32.8215 29.0032 34.3968 28.2605 35.9094 27.3694C35.3322 26.3613 34.7928 25.3346 34.3497 24.2066C32.3464 25.3981 30.3238 26.2314 28.3425 26.7922C27.9408 26.9063 27.5406 27.0098 27.1432 27.1011ZM40.4433 38.7967C39.951 34.1992 38.2937 31.4046 36.682 28.6885C36.5836 28.5223 36.4851 28.3568 36.3874 28.1912C34.8527 29.0952 33.3088 29.8201 31.7763 30.3901C33.7883 33.2831 34.9933 36.951 34.9933 40.9377C34.9933 41.2074 34.9869 41.475 34.9762 41.7418C37.8977 40.4533 39.8654 39.1855 40.4433 38.7967ZM8.79898 30.3901C7.26649 29.8201 5.72258 29.0959 4.18795 28.1912C4.09021 28.3568 3.99175 28.5223 3.8933 28.6885C2.28161 31.4046 0.623556 34.1985 0.131989 38.7967C0.709883 39.1862 2.67758 40.454 5.59915 41.7418C5.58845 41.475 5.58203 41.2074 5.58203 40.9377C5.58203 36.951 6.78705 33.2831 8.79898 30.3901ZM10.3386 29.9228C10.8815 30.0983 11.4316 30.2545 11.986 30.3972C12.4526 29.4162 13.3272 28.1299 14.8883 27.3929C14.4067 27.3101 13.9215 27.2145 13.4321 27.1018C13.0347 27.0098 12.6345 26.907 12.2328 26.7929C10.2516 26.2321 8.22964 25.3988 6.22556 24.2073C5.78251 25.3353 5.24314 26.362 4.66596 27.3701C6.17776 28.2612 7.75377 29.0039 9.38543 29.5953C9.70149 29.7102 10.019 29.8193 10.3386 29.9228ZM28.9418 31.2805C29.0281 31.5473 29.0631 31.7157 29.0652 31.7243L29.1259 32.0317L28.8676 32.2087C27.3415 33.2539 25.8754 33.7804 24.4963 33.7804C24.1224 33.7804 23.755 33.7419 23.394 33.6641C22.2154 33.4116 21.3486 32.7916 20.7856 32.2522C20.5952 32.0696 20.4403 31.8969 20.319 31.7499C20.3148 31.7549 20.2605 31.7549 20.257 31.7499C20.1357 31.8969 19.9809 32.0696 19.7904 32.2522C19.2275 32.7916 18.3606 33.4108 17.182 33.6641C16.821 33.7419 16.4536 33.7804 16.0797 33.7804C14.6999 33.7804 13.2345 33.2546 11.7084 32.2087L11.4502 32.0317L11.5108 31.7243C11.5122 31.7157 11.5479 31.5473 11.6342 31.2805C11.0028 31.1171 10.3671 30.9295 9.7286 30.7169C7.73451 33.4865 6.53306 37.0516 6.53306 40.937C6.53306 41.3473 6.54662 41.7532 6.57301 42.1556C10.1367 43.6196 14.884 44.9901 20.1671 44.9901C20.2013 44.9901 20.2356 44.9894 20.2698 44.9887C20.2762 44.9887 20.2819 44.988 20.2884 44.988C20.2948 44.988 20.3005 44.988 20.3069 44.988C20.3412 44.9887 20.3747 44.9901 20.4097 44.9901C25.6935 44.9901 30.44 43.6196 34.0037 42.1556C34.0301 41.7532 34.0437 41.3465 34.0437 40.937C34.0437 37.0516 32.8415 33.4865 30.8481 30.7169C30.2089 30.9302 29.5732 31.1171 28.9418 31.2805ZM13.2637 26.0809C11.0599 25.5344 8.79255 24.6497 6.55375 23.2956C7.0496 21.7752 7.36137 20.0515 7.36137 17.9461C7.36137 10.7017 9.2085 5.52709 12.8521 2.56557C15.7009 0.249708 18.8258 0 20.0372 0C20.1157 0 20.1849 0.000713583 20.2441 0.00285393L20.257 0.00356733L20.2698 0.00285393C20.2755 0.00285393 20.2819 0.00285398 20.2877 0.00214053C20.2941 0.00214053 20.3005 0.00214048 20.3062 0.00285393L20.319 0.00356733L20.3319 0.00285393C20.3911 0.00142703 20.4603 0 20.5388 0C21.7502 0 24.8751 0.249708 27.7239 2.56557C31.3668 5.52638 33.2147 10.7017 33.2147 17.9461C33.2147 20.0508 33.5264 21.7745 34.0223 23.2956C31.7835 24.6497 29.5161 25.5344 27.3123 26.0809C26.8493 26.1957 26.3891 26.2963 25.9325 26.3827C24.9058 26.576 23.8977 26.6994 22.9181 26.7672C22.4551 25.7791 21.462 25.0885 20.3069 25.0592V25.0571C20.3005 25.0571 20.2948 25.0578 20.2884 25.0578C20.2819 25.0578 20.2762 25.0571 20.2698 25.0571V25.0592C19.1147 25.0885 18.1216 25.7791 17.6586 26.7672C16.6783 26.6994 15.6709 26.576 14.6443 26.3827C14.1869 26.2963 13.7268 26.1957 13.2637 26.0809ZM10.9258 12.8507C10.9258 18.021 15.1173 22.2125 20.2877 22.2125C25.458 22.2125 29.6495 18.021 29.6495 12.8507C29.6495 7.68029 25.458 3.48877 20.2877 3.48877C15.1173 3.48806 10.9258 7.67957 10.9258 12.8507ZM40.5753 41.6583C39.5858 42.2919 37.4083 43.5889 34.4097 44.8253C32.6318 51.8549 26.9877 57.0061 20.319 57.0061C20.3083 57.0061 20.2984 57.0053 20.2877 57.0053C20.2777 57.0053 20.267 57.0061 20.257 57.0061C13.5877 57.0061 7.94426 51.8549 6.16563 44.826C3.167 43.5896 0.989555 42.2926 0 41.659C0.160526 46.7124 1.78148 53.5002 6.24697 58.2639C6.82629 58.8817 7.45412 59.4653 8.1319 60.0068C11.0592 62.3448 14.9332 63.8951 20.0008 63.9957L20.2177 64L20.2613 63.9993H20.2877L20.3148 63.9986L20.3583 63.9993L20.5752 63.995C25.6428 63.8951 29.5168 62.3441 32.4441 60.0061C33.1219 59.4646 33.7497 58.881 34.3291 58.2631C38.7945 53.4994 40.4155 46.7117 40.5753 41.6583ZM19.8246 4.99557C19.8211 4.97203 19.8182 4.94991 19.8154 4.92708C16.8973 5.07477 14.3589 6.68146 12.9134 9.02942C15.5889 8.92954 17.5466 8.26175 18.7345 7.03675C19.4608 6.28906 19.7269 5.50141 19.8246 4.99557ZM27.6619 9.02942C26.2164 6.68146 23.6773 5.07477 20.76 4.92708C20.7571 4.94991 20.7543 4.97132 20.7507 4.99557C20.8484 5.50141 21.1153 6.28906 21.8408 7.03747C23.0294 8.26175 24.9864 8.92954 27.6619 9.02942ZM21.4884 13.3087C21.2922 13.4828 21.2744 13.7838 21.4484 13.98C21.5426 14.0856 21.6732 14.1399 21.8037 14.1399C21.9157 14.1399 22.0285 14.1006 22.1191 14.02C23.755 12.5667 25.229 13.8566 25.3938 14.01C25.5843 14.1898 25.884 14.182 26.0645 13.9922C26.2457 13.8024 26.2378 13.5013 26.0481 13.3201C25.2847 12.5931 23.3491 11.6556 21.4884 13.3087ZM20.3497 18.4962C20.9797 18.4962 21.6753 18.3071 22.3595 17.7792C22.5671 17.6186 22.6057 17.3204 22.4451 17.1121C22.2846 16.9045 21.9864 16.866 21.7781 17.0265C21.2487 17.4346 20.7336 17.5566 20.2869 17.5437C19.8403 17.5566 19.3252 17.4346 18.7958 17.0265C18.5882 16.866 18.2893 16.9045 18.1288 17.1121C17.9682 17.3197 18.0068 17.6186 18.2144 17.7792C18.8986 18.3071 19.5942 18.4962 20.2242 18.4962C20.2448 18.4962 20.2655 18.4955 20.2862 18.4948C20.3083 18.4948 20.329 18.4962 20.3497 18.4962ZM18.7709 14.1391C18.9021 14.1391 19.0327 14.0849 19.1262 13.9793C19.3002 13.7831 19.2831 13.4828 19.0862 13.308C17.2255 11.6549 15.2899 12.5924 14.5258 13.3187C14.3353 13.4999 14.3282 13.8003 14.5094 13.9907C14.6899 14.1805 14.9903 14.1884 15.1801 14.0086C15.3449 13.8552 16.8182 12.5646 18.4548 14.0186C18.5461 14.0999 18.6589 14.1391 18.7709 14.1391ZM7.26934 44.9908C9.1186 51.2621 14.2419 55.7832 20.2563 55.7832C20.2605 55.7832 20.2648 55.7832 20.2691 55.7832C20.2755 55.7832 20.2812 55.7825 20.2877 55.7832C20.2941 55.7832 20.2998 55.7825 20.3062 55.7825C20.3105 55.7825 20.3148 55.7832 20.319 55.7832C26.3341 55.7832 31.4567 51.2621 33.306 44.9908C29.7872 46.3279 25.3232 47.4844 20.4089 47.4844C20.3683 47.4844 20.3283 47.4829 20.2877 47.4829C20.247 47.4836 20.207 47.4844 20.1664 47.4844C15.2521 47.4844 10.7888 46.3279 7.26934 44.9908Z" fill="white"/>
</svg>
