<svg viewBox="0 0 64 48" fill="none" xmlns="http://www.w3.org/2000/svg">
<path d="M63.1934 5.44423C63.0725 5.16194 62.9515 4.91998 62.8305 4.63768C63.2338 4.39572 63.637 4.15375 64 3.95211C63.758 3.54883 63.5967 3.22621 63.3548 2.86326C62.9515 3.10523 62.5482 3.30687 62.1449 3.54883C61.4594 2.29868 60.7738 1.1695 60.0882 0C59.0397 0.443604 58.9994 0.604912 59.322 1.57278C59.564 2.37933 59.8463 3.14556 60.1285 3.95211C60.2899 4.35539 60.2092 4.71834 59.8059 4.91997C58.5558 5.60554 57.3863 6.37177 56.0958 7.05734L52.7083 6.37177C51.1758 7.25898 49.6837 8.10586 48.2319 8.95274L45.046 9.75929C45.046 9.75929 18.3491 25.7694 17.5022 26.2533C16.6553 26.7776 17.5425 29.3182 16.615 29.9635C15.8084 30.5684 12.7435 32.5041 11.7757 33.1493C10.8078 33.7946 10.2029 33.0284 9.59798 33.3913C9.0334 33.7543 0 39.3598 0 39.3598L4.75867 47.5866C4.75867 47.5866 18.0265 33.6333 18.833 32.8267C19.6396 31.9798 20.2042 32.9477 20.2042 32.9477L23.8337 38.3516C24.9225 37.7064 26.0517 37.1015 27.1405 36.4159L25.0032 31.0926C25.1241 31.2136 25.8097 31.8589 26.2936 31.6169C26.8582 31.3346 29.3585 29.8021 30.0441 29.3989C30.7297 28.9956 30.649 27.8664 30.649 27.8664C34.7624 31.8589 39.4808 33.9156 45.167 33.8349C45.2476 32.1411 45.288 30.528 45.3283 28.9149C41.1745 28.2697 37.5451 26.8986 34.9238 23.39C34.9641 23.3497 34.9641 23.3497 35.0044 23.3497C38.2306 21.2123 63.1934 5.44423 63.1934 5.44423ZM28.9553 29.2779C28.431 29.6005 26.8582 30.528 26.3743 30.8103C25.8904 31.0523 25.1241 29.8021 25.1241 29.8021L26.3743 30.1651L26.8582 29.9231C26.8582 29.9231 25.4871 28.7133 25.9307 28.3907C26.3743 28.0277 28.3503 26.9389 28.3503 26.9389L29.2779 28.4713C29.2779 28.431 29.4795 28.9553 28.9553 29.2779Z" fill="white"/>
</svg>
