<svg viewBox="0 0 49 64" fill="none" xmlns="http://www.w3.org/2000/svg">
<path d="M38.9404 17.9331C37.1867 15.9602 35.4575 14.1871 33.9797 12.7551V6.9869H36.8909V4.658H33.9797V0H31.6507V4.658H28.7395V6.9869H31.6507V12.751C30.4387 13.9265 28.845 15.5437 27.1557 17.4206C24.6725 20.1035 22.4136 22.9855 20.4017 26.0378C20.3784 26.0845 20.3784 26.1078 20.3551 26.1311C25.3625 26.0612 36.3087 25.0364 38.9404 17.9331Z" fill="white"/>
<path d="M16.9317 44.2038C16.5337 43.5588 16.1759 42.8899 15.8603 42.2009C15.7672 42.0378 15.7205 41.8516 15.6274 41.6886C15.5751 41.5447 15.5128 41.4047 15.4411 41.2694C15.4427 41.2567 15.4414 41.2439 15.4373 41.2318C15.4333 41.2196 15.4266 41.2086 15.4178 41.1994C15.2314 40.7103 15.0452 40.198 14.9055 39.6856C14.8821 39.6156 14.8588 39.5691 14.8355 39.4993C14.6334 38.7566 14.4779 38.0021 14.3696 37.2401C14.3254 37.0641 14.2943 36.8851 14.2765 36.7045C14.1751 35.9244 14.1207 35.1389 14.1135 34.3522C14.1202 33.7346 14.1825 33.1188 14.2998 32.5124C14.3191 32.4442 14.327 32.3734 14.3232 32.3027C14.4535 31.6536 14.6325 31.0152 14.8588 30.3929C14.8821 30.2765 14.9286 30.1834 14.9519 30.0669C15.1849 29.4148 15.4644 28.7394 15.7904 28.0407C15.8602 27.9242 15.9068 27.8078 15.9766 27.668C16.0931 27.4352 16.2096 27.2022 16.3494 26.946C16.3494 26.9227 16.3727 26.8994 16.3727 26.8762C16.6288 26.4337 16.885 25.9679 17.1644 25.5021L17.2344 25.3624C15.7423 23.6216 14.2531 22.0875 13.0818 20.926V16.3026H15.993V13.9738H13.0818V11.0997H10.7529V13.9738H7.84166V16.3028H10.7529V20.7408C6.52798 24.8826 5.83642e-05 32.2965 5.83642e-05 36.9142C-0.00840747 39.5914 0.904351 42.1899 2.58512 44.2737H16.9781C16.9549 44.2504 16.9549 44.2271 16.9317 44.2038Z" fill="white"/>
<path d="M17.2344 35.7497C17.2576 35.9126 17.2809 36.0757 17.3042 36.2154C17.3275 36.5182 17.3742 36.8443 17.4206 37.1471C17.444 37.3101 17.4906 37.4965 17.5372 37.6827C17.607 37.939 17.6536 38.2184 17.7234 38.4747C17.77 38.661 17.8398 38.8239 17.8865 38.987C22.7074 38.498 41.3392 35.936 43.9243 24.128C43.0626 22.917 42.1311 21.6826 41.1528 20.4948C36.9374 28.3203 24.8501 29.2053 19.8196 29.2053C19.3537 29.2053 18.9812 29.182 18.6551 29.182C18.1655 30.1734 17.7754 31.211 17.4906 32.2794C17.3018 32.9553 17.1924 33.6509 17.1646 34.3522C17.1634 34.8189 17.1867 35.2854 17.2344 35.7497Z" fill="white"/>
<path d="M46.0671 27.4586C41.4789 38.4513 25.1995 41.2694 19.1442 41.9214C19.214 42.0378 19.2606 42.1776 19.3304 42.2941C19.4468 42.457 19.5634 42.6434 19.6798 42.8064C19.8196 43.0393 19.9593 43.249 20.099 43.4586C20.2154 43.6215 20.3552 43.7846 20.4716 43.9476C20.5589 44.0611 20.6522 44.1699 20.7511 44.2736H44.9026C47.2024 41.4783 48.4617 37.972 48.4658 34.3522C48.252 31.8906 47.4275 29.5212 46.0671 27.4586Z" fill="white"/>
<path d="M21.6369 60.646L44.0409 64V47.324H21.5889L21.6369 60.646Z" fill="white"/>
<path d="M3.81956 47.3247V57.3392L17.9331 54.754C18.1401 54.7074 18.3549 54.7074 18.562 54.754L18.5386 47.3246L3.81956 47.3247Z" fill="white"/>
</svg>
