<svg viewBox="0 0 52 64" fill="none" xmlns="http://www.w3.org/2000/svg">
<path d="M39.7412 27.4809C35.7284 24.3506 31.5876 21.1157 28.438 16.4188C29.078 15.7767 29.4734 14.8914 29.4734 13.9136C29.4734 12.864 29.0148 11.9239 28.2908 11.274V9.14205H31.9268C33.2338 9.14205 34.2926 8.0832 34.2926 6.77618C34.2926 5.46916 33.2338 4.41031 31.9268 4.41031H28.2908V2.36587C28.2901 1.05884 27.1822 0 25.8752 0C24.5682 0 23.4603 1.05884 23.4603 2.36587V4.4096H19.8244C18.5173 4.4096 17.4585 5.46844 17.4585 6.77547C17.4585 8.08249 18.5173 9.14133 19.8244 9.14133H23.4603V11.2732C22.7356 11.9232 22.2777 12.8633 22.2777 13.9129C22.2777 14.8907 22.6731 15.776 23.3131 16.4181C20.1636 21.115 16.0228 24.3499 12.01 27.4802C5.83324 32.298 0 36.8484 0 45.5381V45.6548C0.0469333 55.776 8.33422 64 18.4725 64H25.8752H33.2779C43.4162 64 51.7035 55.776 51.7511 45.6555V45.5388C51.7511 36.8491 45.9179 32.2987 39.7412 27.4809ZM4.73102 45.6441C4.73102 39.1353 9.0944 35.3188 16.3577 30.085C15.4446 33.4222 14.9532 37.2658 14.9532 41.2651C14.9532 46.8508 15.9104 53.7956 19.3209 59.2683C13.0802 59.8372 4.73102 54.8096 4.73102 45.6441ZM25.8752 58.6318C23.3714 58.6318 19.685 51.8663 19.685 41.2651C19.685 30.6638 23.3714 23.8983 25.8752 23.8983C28.379 23.8983 32.0654 30.6638 32.0654 41.2651C32.0654 51.8663 28.379 58.6318 25.8752 58.6318ZM32.4295 59.2683C35.8393 53.7956 36.7972 46.8508 36.7972 41.2651C36.7972 37.2658 36.3058 33.4222 35.3927 30.0857C42.656 35.3195 47.0194 39.136 47.0194 45.6448C47.0194 54.8096 38.6702 59.8372 32.4295 59.2683Z" fill="white"/>
</svg>
