<svg viewBox="0 0 64 64" fill="none" xmlns="http://www.w3.org/2000/svg">
<path d="M32 64C21.9714 64 13.0203 59.3868 7.15302 52.1666C7.19554 52.2023 7.23804 52.2379 7.28053 52.2732C8.6809 53.4388 10.1114 54.4621 11.4237 55.2059C12.6468 55.8992 14.0687 56.528 15.36 56.528H17.36V54.528C17.36 52.8 17.9793 51.0802 18.8592 49.8122C19.023 49.576 19.1848 49.37 19.3418 49.1907C20.1994 52.8829 22.4957 55.5207 24.6718 57.2588C26.0454 58.3558 27.409 59.1294 28.426 59.6291C30.11 60.3753 31.1005 60.6849 32.848 61.2823V58.496C32.848 53.1919 34.2302 51.0322 35.1578 50.1651C35.242 50.0863 35.3254 50.0154 35.4072 49.9515C36.5683 52.6492 38.8187 54.0672 40.8087 54.7668C42.034 55.1976 43.1992 55.3782 44.0454 55.454C44.4727 55.4923 44.8297 55.5049 45.0868 55.5077C45.2156 55.509 45.3201 55.5079 45.3966 55.5063L48.3371 55.3617L47.2969 52.7612C46.6547 51.1555 46.8048 49.2171 47.6204 47.1501C48.0277 46.1177 48.5829 45.1041 49.2247 44.1605C49.532 47.0545 50.8157 49.454 53.12 51.456C53.3129 51.6236 53.5287 51.8136 53.7602 52.0174C54.3144 52.5054 54.9595 53.0736 55.6025 53.6087C49.7522 59.9953 41.3438 64 32 64Z" fill="white"/>
<path fill-rule="evenodd" clip-rule="evenodd" d="M45.44 53.504C43.7198 49.2036 46.3636 43.9596 49.5219 40.6025C50.405 38.1252 52.7714 36.352 55.552 36.352C58.8657 36.352 61.5912 38.8704 61.919 42.0976C61.9408 42.3128 61.952 42.5311 61.952 42.752C61.952 42.9162 61.9483 43.1063 61.9407 43.3186C63.2716 39.7998 64 35.985 64 32C64 14.3269 49.6731 0 32 0C14.3269 0 0 14.3269 0 32C0 36.2937 0.845665 40.3899 2.37951 44.1312C5.7958 49.1096 12.6236 54.528 15.36 54.528C15.36 50.176 18.432 46.08 20.992 46.08C20.992 55.168 30.848 58.496 30.848 58.496C30.848 47.232 36.736 47.36 36.736 47.36C37.76 53.888 45.44 53.504 45.44 53.504ZM43.8483 14.8481C47.4774 14.8481 49.1449 17.2218 49.1449 20.1499L49.391 24.3607C49.2788 23.8406 48.4789 22.5581 43.318 22.5581C40.3928 22.5581 38.0214 20.1844 38.0214 17.2562L37.6516 12.5211C37.7704 13.1524 38.5799 14.8481 43.8483 14.8481ZM37.6334 12.288L37.6516 12.5211C37.6245 12.3767 37.6334 12.288 37.6334 12.288ZM49.4036 24.576L49.391 24.3607C49.4195 24.493 49.4036 24.576 49.4036 24.576Z" fill="white"/>
</svg>
