<svg viewBox="0 0 50 64" fill="none" xmlns="http://www.w3.org/2000/svg">
<path d="M24.7093 20.3309C24.2302 20.194 23.7511 20.4678 23.6142 20.9469L23.3404 21.6998L19.918 20.0571C19.5074 19.8517 18.9598 20.0571 18.7545 20.4678C18.5491 20.8785 18.7545 21.426 19.1651 21.6314L23.4773 23.7532C23.6142 23.8217 23.7511 23.8217 23.888 23.8217C24.0249 23.8217 24.0933 23.8217 24.2302 23.7532C24.4355 23.6848 24.6409 23.4794 24.7093 23.2056L25.2569 21.426C25.3938 20.9469 25.12 20.4678 24.7093 20.3309Z" fill="white"/>
<path d="M8.82965 35.3892C4.85973 41.2756 2.05341 49.6262 0 64H49.4871C49.4871 63.3155 49.3502 58.5927 48.8711 53.1854C47.1599 38.6746 42.2317 29.9819 38.3303 25.3275C38.2618 24.7115 37.988 23.2741 37.5089 21.426C38.3987 19.4411 38.8094 17.2508 38.8094 15.0605C38.7409 10.9536 37.0982 7.18907 34.2235 4.3143C31.2802 1.50797 27.4472 -0.0663042 23.4088 0.00214269C14.9899 0.139037 8.21363 7.05217 8.28208 15.4711C8.35052 18.8935 9.51412 22.1789 11.636 24.8484C11.3622 25.5328 11.1568 26.2858 11.0884 27.1756C11.02 28.8183 11.5675 29.9134 12.1151 30.5295C11.7044 31.0086 11.2253 31.6246 10.8146 32.2406C10.0617 33.3358 9.37723 34.4994 8.82965 35.3892ZM22.1084 56.4024C21.0132 56.0602 18.7545 55.1704 16.4273 54.0068C13.484 52.5009 11.4991 50.9951 10.5408 49.4893C11.1568 49.6946 11.8413 49.9684 12.4573 50.1737C14.9899 51.0635 17.0433 51.8165 18.2069 51.8165C19.0282 51.8165 19.4389 51.4742 19.6443 51.132C20.1234 50.3791 19.6443 49.5577 19.5074 49.2155C19.302 48.7363 19.0967 48.3257 18.9598 47.915C19.7812 48.5994 21.287 49.8999 22.1768 51.3373C22.3137 51.748 22.3821 52.1587 22.4506 52.5694C22.519 54.8281 22.2452 55.8548 22.1084 56.4024ZM29.0215 60.2354C29.0215 61.1252 27.4472 60.4408 27.4472 60.4408C27.4472 60.4408 24.0933 57.6344 23.7511 57.0869C24.0933 56.2655 24.3671 54.8281 24.1618 52.4325C24.0249 50.3791 22.9297 48.531 20.8763 47.0252C19.4389 45.93 18.0015 45.4509 17.9331 45.4509C17.6593 45.3824 17.3171 45.3824 17.1117 45.5878C16.9064 45.7931 16.7695 46.0669 16.7695 46.3407C16.7695 46.4091 16.9064 48.1203 17.8646 49.9684C17.3855 49.8999 16.7695 49.763 16.085 49.4893C15.1952 49.2155 14.1001 48.8048 13.0049 48.4626C12.1151 48.1203 11.1568 47.7781 10.1986 47.5043C9.99325 47.4359 9.85635 47.3674 9.65101 47.299C9.85635 46.2038 10.1301 45.1771 10.4039 44.082C10.6093 43.8766 11.5675 42.8499 11.8413 42.5761C13.0734 41.2072 14.4423 39.3591 14.853 37.8533C15.2637 36.279 16.9748 33.4042 18.07 31.7615C18.2753 31.4193 18.4807 31.1455 18.6176 30.9401C18.8229 30.6664 18.8229 29.229 18.8229 29.229C18.8913 29.229 18.9598 29.2974 19.0282 29.2974C19.2336 29.2974 20.4656 30.5295 22.3137 30.2557C22.3137 30.2557 21.6977 34.0203 29.1584 35.3892C28.953 37.0319 28.6793 40.3174 28.8161 41.6179C28.6793 41.5494 24.4355 38.4693 21.287 38.7431C20.671 38.8115 20.1918 39.4276 20.5341 40.0436C20.671 40.3174 21.3554 40.4543 21.3554 40.4543C24.9831 40.4543 28.7477 46.1354 29.2268 50.2422C29.2268 50.7213 29.0215 57.4291 29.0215 60.2354ZM14.3739 13.0071C14.237 13.0071 14.1685 12.9386 14.1001 12.8017C14.1001 12.6648 14.1001 12.5964 14.237 12.5279L15.1952 11.9119L14.5107 11.0221C14.4423 10.9536 14.4423 10.8168 14.5107 10.6799C14.5792 10.6114 14.7161 10.543 14.7845 10.543L15.8797 10.7483L16.0166 9.65316C16.0166 9.51626 16.085 9.44782 16.2219 9.37937C16.3588 9.37937 16.4273 9.37937 16.4957 9.51626L17.1117 10.4745L18.0015 9.79005C18.07 9.7216 18.2069 9.7216 18.3438 9.79005C18.4122 9.8585 18.4807 9.99539 18.4807 10.0638L18.2753 11.159L19.3705 11.2959C19.5074 11.2959 19.5758 11.3643 19.6443 11.5012C19.6443 11.6381 19.6443 11.7066 19.5074 11.775L18.5491 12.391L19.2336 13.2808C19.302 13.3493 19.302 13.4862 19.2336 13.6231C19.1651 13.6915 19.0282 13.76 18.9598 13.76L17.8646 13.5546L17.7277 14.6498C17.7277 14.7867 17.6593 14.8551 17.5224 14.9236H17.454C17.3855 14.9236 17.2486 14.8551 17.2486 14.7867L16.6326 13.8284L15.7428 14.5129C15.6743 14.5813 15.5374 14.5813 15.4006 14.5129C15.3321 14.4444 15.2637 14.3075 15.2637 14.2391L15.469 13.1439L14.3739 13.0071ZM16.9064 23.4794C17.0433 23.6163 18.8229 23.9586 19.0282 24.0955C18.2753 24.3692 16.5642 25.6697 17.6593 28.5445L17.7277 28.613C17.7277 28.613 16.8379 28.2023 16.7695 28.2023C16.5642 28.1338 16.3588 28.1338 16.085 28.1338C15.2637 28.1338 14.3054 28.5445 13.3471 29.3659C13.0734 28.9552 12.7996 28.3392 12.868 27.3125C12.9365 26.012 13.4156 25.0537 14.1685 24.3692C15.2637 23.4794 16.3588 23.411 16.9064 23.4794ZM19.0967 26.1489C19.6443 22.2474 27.4472 27.3809 24.504 28.613C22.3137 29.7765 19.302 28.613 19.0967 26.1489ZM32.3069 36.0737C32.0331 36.5528 30.5273 37.8533 29.9797 38.1955C29.9797 37.7164 29.9797 36.0737 30.0482 35.5945C30.8696 35.1154 32.3754 34.7047 32.7176 34.6363L32.3069 36.0737ZM27.4472 29.3659C27.4472 29.229 27.7894 27.1756 27.4472 26.4911C29.2953 26.5595 29.9113 25.9435 30.3904 25.1222C31.4856 23.0688 30.3904 19.3726 29.706 18.3459C29.4322 17.9352 28.8161 17.7983 28.4055 18.209C28.0632 18.4828 28.0632 18.9619 28.2686 19.3726C28.4739 19.7149 28.8846 20.6731 29.0215 21.6998C29.2268 22.8634 29.1584 23.8901 28.8846 24.4377C28.7477 24.643 28.5424 25.0537 27.9948 25.0537C23.3404 25.0537 20.2603 23.6848 18.3438 22.1789C18.2753 22.1105 18.2069 21.9736 18.1384 21.9736C17.3855 21.3576 16.8379 20.7416 16.4273 20.194C16.2904 20.0571 15.9481 19.3042 15.8797 19.1673C15.8797 18.825 15.8112 18.4828 16.4957 18.1406C17.8646 16.0187 20.6025 12.8702 24.7778 12.1172C24.8462 12.1172 25.12 12.1857 26.4205 13.2808C27.2419 13.9653 28.4055 15.0605 29.6375 16.5663C31.4856 18.825 32.923 21.426 33.8812 24.2324C33.9497 24.4377 34.0181 24.643 34.0866 24.8484C34.6341 26.5595 35.0448 28.3392 35.2502 30.1872C31.8963 30.8033 27.9263 29.5028 27.4472 29.3659ZM37.988 38.1271L39.0147 37.0319C39.0832 36.9635 39.2201 36.895 39.357 36.9635C39.4939 37.0319 39.5623 37.1004 39.4939 37.2373L39.4254 38.7431L40.9312 38.6746C41.0681 38.6746 41.1366 38.7431 41.205 38.8115C41.2735 38.9484 41.205 39.0169 41.1366 39.1538L40.0414 40.1805L41.1366 41.2072C41.205 41.2756 41.2735 41.4125 41.205 41.5494C41.1366 41.6863 41.0681 41.7548 40.9312 41.6863L39.4254 41.6179L39.4939 43.1237C39.4939 43.2606 39.4254 43.329 39.357 43.3975C39.357 43.3975 39.2885 43.3975 39.2201 43.3975C39.1516 43.3975 39.0832 43.3975 39.0147 43.329L37.988 42.2339L36.9613 43.329C36.8929 43.3975 36.756 43.4659 36.6191 43.3975C36.4822 43.329 36.4138 43.2606 36.4822 43.1237L36.5506 41.6179L35.0448 41.6863C34.9079 41.6863 34.8395 41.6179 34.771 41.5494C34.7026 41.4125 34.771 41.3441 34.8395 41.2072L35.9346 40.1805L34.8395 39.1538C34.771 39.0853 34.7026 38.9484 34.771 38.8115C34.8395 38.6746 34.9079 38.6062 35.0448 38.6746L36.5506 38.7431L36.4822 37.2373C36.4822 37.1004 36.5506 37.0319 36.6191 36.9635C36.756 36.895 36.8244 36.9635 36.9613 37.0319L37.988 38.1271ZM10.0617 15.4027C9.99325 7.94198 15.9481 1.85021 23.4088 1.71332C23.4773 1.71332 23.5457 1.71332 23.5457 1.71332C27.105 1.71332 30.4589 3.08225 32.9914 5.54634C35.5924 8.07888 37.0298 11.4328 37.0298 15.0605C37.0298 16.2241 36.8929 17.3877 36.6191 18.4828C35.9346 16.7032 33.4021 10.6114 31.8963 8.76335C28.4055 4.3143 23.3404 3.28759 18.4807 6.02547C14.6476 8.14733 12.3889 10.6799 12.0467 13.6231C11.5675 17.1823 13.3471 19.578 13.8947 20.3309C13.9632 20.4678 15.1268 21.5629 15.4006 21.8367C14.6476 21.9736 13.7578 22.3158 12.9365 22.9319C12.7996 23.0688 12.6627 23.1372 12.5942 23.2741C11.02 21.0153 10.1301 18.2775 10.0617 15.4027ZM11.8413 33.7465C13.484 31.4193 15.3321 29.5712 16.3588 29.845L17.0433 30.1188C16.0166 31.6246 13.6209 35.1839 13.2103 37.3057C13.0049 38.264 11.2253 40.6596 11.02 40.8649C11.0884 39.5645 11.02 38.1271 11.02 36.7581H10.9515C10.9515 36.4159 10.8831 35.7999 10.8146 35.2523C11.02 35.047 11.7044 34.0203 11.8413 33.7465Z" fill="white"/>
</svg>
