<svg viewBox="0 0 52 64" fill="none" xmlns="http://www.w3.org/2000/svg">
<path d="M7.15998 13.5619L17.7774 1.78431L18.6284 0L16.9929 0.988289L6.24238 12.9138L6.79817 13.4696C6.92068 13.4886 7.04159 13.5199 7.15998 13.5619Z" fill="white"/>
<path d="M24.5208 24.4386C24.4726 24.3905 23.416 23.3603 21.8752 23.674C21.1342 23.8252 19.9526 24.4067 18.865 25.1554C17.3119 26.2247 16.5623 27.1728 16.5086 27.6378C16.464 28.0245 16.5886 28.4001 16.8248 28.7392C18.1906 28.7331 19.4994 28.3569 20.7231 27.6228C20.6524 27.0635 20.6763 26.658 20.6791 26.6152C20.6961 26.3603 20.8922 26.1534 21.146 26.123C22.3469 25.9787 23.4202 26.3385 24.3362 27.1923C24.551 27.3924 24.5628 27.7287 24.3627 27.9434C24.1625 28.158 23.8262 28.1699 23.6116 27.9697C23.051 27.4473 22.4377 27.179 21.7477 27.1565C21.7934 27.8592 22.0161 29.1737 23.0097 29.8615C24.4642 30.8687 27.1539 30.6124 27.8799 29.6794C28.6747 28.6573 29.1398 24.2909 28.1917 22.5519C27.3973 21.0947 25.1501 20.0226 23.0829 20.3851C24.7727 20.8378 26.0669 21.5613 27.0103 22.5762C27.2101 22.7912 27.1977 23.1274 26.9828 23.3272C26.8803 23.4224 26.7505 23.4694 26.6211 23.4694C26.4785 23.4694 26.3363 23.4124 26.2316 23.2997C25.1814 22.1698 23.5765 21.4527 21.3335 21.1084C20.3617 21.7877 19.7942 22.754 19.4732 23.5273C20.2886 23.0741 21.0605 22.7552 21.663 22.6325C23.7834 22.1989 25.218 23.631 25.278 23.6922C25.4836 23.9016 25.4805 24.2381 25.2711 24.4437C25.062 24.6492 24.7266 24.6462 24.5208 24.4386Z" fill="white"/>
<path d="M3.9505 14.4313C4.18249 14.4736 4.40691 14.5498 4.61591 14.6602C4.74187 14.3791 4.93068 14.1257 5.1749 13.9228C5.28319 13.8329 5.39852 13.7571 5.51797 13.6925L4.11818 12.2929C3.96405 12.1389 3.75943 12.054 3.54166 12.054C3.32388 12.054 3.11913 12.1389 2.96513 12.2929C2.81114 12.4469 2.72636 12.6516 2.72636 12.8694C2.72636 13.0873 2.81114 13.2921 2.96513 13.4461L3.9505 14.4313Z" fill="white"/>
<path d="M22.3835 36.9463C23.7095 37.1395 25.3912 36.0686 26.4058 35.2535C26.1089 35.1515 25.8357 35.0598 25.5996 34.9819C24.6891 34.6814 24.0554 33.8354 24.0223 32.8766L23.9714 31.3984C23.3939 31.2632 22.852 31.0455 22.4044 30.7355C22.3678 30.7102 22.3334 30.6833 22.2981 30.657C22.0364 30.7694 21.6361 30.9228 21.1597 31.0437L20.5851 32.3809C20.3885 32.8382 20.0615 33.2116 19.6542 33.4642C20.0233 34.6403 20.9632 36.7401 22.3835 36.9463Z" fill="white"/>
<path d="M1.14295 18.2387L0.16343 19.2183C0.0580643 19.3237 0 19.4638 0 19.6127C0 19.7617 0.0580643 19.9018 0.16343 20.0072C0.380939 20.2247 0.734639 20.2248 0.952281 20.0071L1.9318 19.0275C1.75694 18.9243 1.59311 18.7987 1.44775 18.6455C1.32937 18.5206 1.22839 18.3839 1.14295 18.2387Z" fill="white"/>
<path d="M18.5253 33.8183C18.4804 33.8208 18.4356 33.8236 18.391 33.8236C17.7165 33.8237 17.0729 33.5383 16.6157 33.0232C16.4412 32.8267 16.2755 32.6414 16.1138 32.4618C16.2235 34.7041 16.0333 37.2383 14.7579 39.3784C15.0418 41.2462 15.0724 44.2435 15.0214 46.9538C17.0414 43.4058 18.7044 38.4344 18.5253 33.8183Z" fill="white"/>
<path d="M21.5068 29.8258C21.2618 29.468 21.087 29.084 20.9641 28.7098C20.0137 29.2338 19.0182 29.5708 17.9873 29.7174C18.3434 29.9054 18.7336 30.0453 19.1235 30.1206C19.9758 30.2858 20.9086 30.0414 21.5068 29.8258Z" fill="white"/>
<path d="M28.6798 48.0431C28.2687 48.7741 27.8415 49.5069 27.4024 50.2267L27.7729 50.5207C28.0029 50.7031 28.0415 51.0374 27.859 51.2674C27.7541 51.3997 27.5989 51.4686 27.4424 51.4686C27.3266 51.4686 27.2101 51.431 27.1124 51.3535L26.8369 51.135C26.7536 51.2661 26.67 51.3967 26.5859 51.5264C26.3183 51.9394 26.0301 52.3591 25.7267 52.7824H27.7084C28.12 52.7824 28.5112 52.6043 28.7813 52.2936C29.0515 51.983 29.1738 51.5709 29.1167 51.1631L28.6798 48.0431Z" fill="white"/>
<path d="M27.4688 53.8453H24.9391C21.8029 57.9466 17.515 62.1742 15.6016 64H22.0857C22.8765 62.0513 23.3805 60.081 23.5837 58.1384C23.6142 57.8466 23.877 57.6356 24.1676 57.665C24.4595 57.6956 24.6715 57.9569 24.641 58.249C24.4413 60.1579 23.9665 62.0888 23.2289 64H27.3414C27.8071 61.8609 28.7147 57.2725 28.5262 56.1074C28.3488 55.0116 27.7434 54.1772 27.4688 53.8453Z" fill="white"/>
<path d="M4.42006 15.8279C4.18209 15.5769 3.85443 15.4529 3.5111 15.4529C3.12909 15.4529 2.72743 15.6064 2.40787 15.9093C2.10692 16.1946 1.92502 16.5659 1.89553 16.9546C1.86762 17.3238 1.98256 17.6647 2.21933 17.9144C2.72225 18.4445 3.62483 18.4082 4.23152 17.8329C4.83807 17.2576 4.92271 16.3582 4.42006 15.8279Z" fill="white"/>
<path d="M47.9677 42.9778C47.7605 42.9575 47.5842 42.818 47.5168 42.6209C47.4494 42.424 47.5031 42.2057 47.6544 42.0627L48.2024 41.5448C48.425 41.3342 48.4421 40.9881 48.2411 40.7566C48.0394 40.5245 47.6845 40.4941 47.4498 40.6891C46.1353 41.7834 45.0853 42.3383 44.3287 42.3383C43.4851 42.3383 42.7459 41.9932 42.0311 41.6596C41.5372 41.4291 41.0265 41.1907 40.497 41.0788C39.95 40.9632 39.3073 40.9527 38.627 40.9414C37.7151 40.9264 36.7722 40.9109 35.9797 40.6256C35.27 40.3701 34.4599 39.7286 33.5217 38.9859C33.4384 38.9198 33.353 38.8525 33.2676 38.7851C32.9258 39.5677 32.2807 41.0108 31.4249 42.7736C32.463 43.2506 35.0215 44.3367 37.1354 44.5042C38.7908 44.6355 40.2384 44.5111 41.4018 44.4115C42.2231 44.3411 42.8715 44.2855 43.3631 44.3404C43.9169 44.4023 44.4404 44.5873 44.9946 44.7832C45.6422 45.0122 46.3119 45.2487 47.1634 45.3529C48.6407 45.5333 50.655 45.3568 51.3332 44.7567C51.507 44.6029 51.5293 44.4714 51.5293 44.3739C51.5295 43.7578 49.6524 43.1436 47.9677 42.9778Z" fill="white"/>
<path d="M25.6939 50.948C28.9518 45.9215 31.7163 39.6962 32.3993 38.1161C31.8268 37.6892 31.2264 37.2778 30.6158 36.9555C29.7891 36.5188 28.6329 36.0562 27.5619 35.6636C26.8467 36.3029 24.7257 38.0316 22.705 38.0316C22.5461 38.0316 22.3877 38.0208 22.2307 37.9981C21.0225 37.8227 20.1503 36.864 19.5545 35.8585C19.2219 40.7929 17.1642 45.8235 14.9657 49.0552C14.9294 50.1357 14.8864 51.0853 14.8512 51.7836C16.1304 50.8827 17.2745 50.1447 17.5338 49.9786C17.7811 49.8204 18.1098 49.8926 18.2681 50.1394C18.4263 50.3865 18.3544 50.7152 18.1073 50.8736C15.8606 52.3131 12.3128 54.7997 11.7471 55.7497C11.3463 56.4228 11.2794 57.3114 11.2992 57.9701C13.9227 55.9753 18.1135 53.2665 18.7348 52.8667C18.9817 52.7078 19.3106 52.7792 19.4693 53.0258C19.6281 53.2727 19.5569 53.6016 19.31 53.7604C17.0584 55.2094 11.0253 59.2179 10.161 60.3489C9.43392 61.3001 9.23488 63.1041 9.1804 63.9997H10.748L16.4929 57.8311C16.6932 57.6165 17.0294 57.6044 17.244 57.8045C17.4589 58.0045 17.4708 58.3408 17.2707 58.5556L12.2005 63.9997H14.0514C15.1719 62.9547 22.2447 56.2696 25.6939 50.948ZM22.9541 48.0686C25.2271 46.3329 26.8051 44.0309 27.644 41.227C27.7282 40.9457 28.0247 40.7864 28.3056 40.8701C28.5869 40.9542 28.7466 41.2504 28.6625 41.5316C27.7579 44.5551 26.0545 47.0386 23.5995 48.9134C23.5031 48.987 23.3898 49.0225 23.2773 49.0225C23.1173 49.0225 22.959 48.9506 22.8545 48.8136C22.6762 48.5801 22.7208 48.2466 22.9541 48.0686Z" fill="white"/>
<path d="M14.338 37.8448C15.2135 35.7119 15.1501 33.2421 14.9551 31.2038C14.7297 30.9665 14.5238 30.7547 14.3425 30.5752C12.8553 29.1019 10.7564 27.5514 10.7354 27.536C10.6117 27.4449 10.5334 27.3047 10.5208 27.1515C10.5189 27.1296 10.3309 24.9339 9.59682 23.3012C8.85195 21.6447 6.65574 18.9149 6.63368 18.8874C6.54412 18.7764 6.50293 18.634 6.51941 18.4922C6.53589 18.3504 6.6087 18.2213 6.72137 18.1339C6.7336 18.1243 8.04729 17.0793 7.90405 15.9349C7.84984 15.5016 7.56895 15.0881 7.06909 14.7059C6.71473 14.4349 6.20398 14.4494 5.854 14.7402C5.62387 14.9314 5.49618 15.2156 5.50043 15.5126C6.05144 16.4646 5.85599 17.7569 4.96257 18.604C4.57127 18.9749 4.10144 19.2077 3.61952 19.3019C4.20282 21.1039 5.9021 26.1841 7.31756 28.7392C8.14149 30.2264 9.59562 31.8833 11.0019 33.4858C12.4044 35.0839 13.7303 36.5962 14.338 37.8448Z" fill="white"/>
<path d="M10.9261 51.0106C12.1534 50.4583 13.487 49.0061 13.935 47.7468C13.9829 45.7439 13.9932 43.5967 13.9128 41.8379C12.9996 42.4599 11.8852 42.8601 10.8714 43.2237C9.46488 43.7283 8.13631 44.2049 7.90591 45.0714C7.49295 46.6248 8.88012 47.1186 9.03956 47.1697C9.22093 47.2279 9.35871 47.3793 9.39844 47.5655C9.43817 47.7518 9.37665 47.9456 9.23488 48.0726C8.84517 48.424 7.85795 49.5416 7.97461 50.4741C8.00782 50.7397 8.14973 50.9394 8.40869 51.0849C9.00515 51.42 10.0874 51.3881 10.9261 51.0106Z" fill="white"/>
</svg>
