<svg viewBox="0 0 37 64" fill="none" xmlns="http://www.w3.org/2000/svg">
<path d="M34.6967 17.9052L23.8964 17.9036V15.7351L27.5482 15.7367C28.4284 15.7367 29.1407 15.0236 29.1407 14.1434V7.47679C29.1407 6.5966 28.4276 5.88355 27.5482 5.88355L23.8964 5.88205V1.59249C23.8964 0.712291 23.1833 0 22.3039 0H13.5411C12.6609 0 11.9486 0.713044 11.9486 1.59249V5.88129L8.01064 5.8828C7.13044 5.8828 6.41739 6.59584 6.41739 7.47604V14.1427C6.41739 15.0229 7.13044 15.7359 8.01064 15.7359L11.9486 15.7344V17.9029L1.59249 17.9052C0.712291 17.9052 0 18.6182 0 19.4984V27.1634C0 28.0436 0.713044 28.7559 1.59249 28.7559H11.923L11.8846 32.9077L11.1851 32.4122C10.2725 31.8935 9.10994 32.2142 8.59116 33.1275L4.88363 39.6406C4.35506 40.4703 4.54481 41.5809 5.34369 42.1833L11.7596 46.5045L11.615 62.3932C11.6105 62.8179 11.7776 63.2267 12.0758 63.5279C12.3755 63.8306 12.7828 64 13.2075 64H22.3024C23.1826 64 23.8949 63.287 23.8949 62.4075V54.4262L24.3188 54.741C25.196 55.3215 26.3773 55.0806 26.9571 54.2041L31.142 47.8824C31.718 47.0022 31.4711 45.82 30.5909 45.2448L23.8949 40.8521V28.7544L34.6952 28.7559C35.5754 28.7559 36.2877 28.0429 36.2877 27.1634V19.4984C36.2892 18.6182 35.5761 17.9052 34.6967 17.9052ZM15.1509 25.5702H3.18573V21.0909L15.1509 21.0879V17.9021H15.1335V15.7329H15.1509V12.5472L9.60237 12.5502V9.06928L15.1509 9.06627V5.88054H15.1335V3.18573L20.7649 3.18272V5.88054V7.48809V9.06627L25.9557 9.06928V12.5502L20.7649 12.5472V14.4039V15.7336V17.9029V19.655V21.0886L33.1034 21.0909V25.5702L20.7649 25.5679V26.0716V28.7537V41.0448V41.3746V43.5152L26.802 47.5518L24.7653 50.8633L20.7649 48.1587V51.4995V52.1026V60.8128H15.0966L15.1478 49.017L15.1516 48.7889V44.4241L8.87201 40.3303L10.8011 36.942L15.1652 39.828" fill="white"/>
</svg>
