<svg viewBox="0 0 58 64" fill="none" xmlns="http://www.w3.org/2000/svg">
<path d="M57.7347 38.6695L55.9158 34.3579L45.4063 38.8042L39.3432 35.3011V28.6989L45.4063 25.1958L55.9158 29.6421L57.7347 25.3305L50.459 22.2316L57.8021 17.9874L55.4442 13.9453L48.1011 18.1895L49.0442 10.3747L44.3958 9.76842L43.0484 21.1537L36.9853 24.6568L31.2589 21.3558V14.3495L40.3537 7.4779L37.5916 3.70526L31.2589 8.48842V0H26.5432V8.48842L20.2105 3.70526L17.4484 7.4779L26.6105 14.3495V21.3558L20.8168 24.6568L14.7537 21.1537L13.4063 9.76842L8.7579 10.3074L9.70105 18.1221L2.3579 13.8779L0 17.92L7.34316 22.2316L0.0673684 25.3305L1.88632 29.6421L12.3958 25.1958L18.4589 28.6989V35.3011L12.3958 38.8042L1.88632 34.3579L0.0673684 38.6695L7.34316 41.7684L0 45.9453L2.3579 49.9874L9.70105 45.7432L8.7579 53.5579L13.4063 54.2316L14.7537 42.8463L20.8168 39.3432L26.5432 42.6442V49.6505L17.4484 56.5221L20.2779 60.2947L26.6105 55.5116V64H31.3263V55.5116L37.659 60.2947L40.4884 56.5221L31.2589 49.6505V42.6442L36.9853 39.3432L43.0484 42.8463L44.3958 54.2316L49.0442 53.6926L48.1011 45.8779L55.4442 50.1221L57.8021 46.08L50.459 41.7684L57.7347 38.6695ZM34.6274 35.3011L28.9011 38.6021L23.1747 35.3011V28.6989L28.9011 25.3979L34.6274 28.6989V35.3011Z" fill="white"/>
</svg>
