<svg viewBox="0 0 64 57" fill="none" xmlns="http://www.w3.org/2000/svg">
<path d="M64 7.37818C64 9.07695 62.623 10.4539 60.9243 10.4539H24.6998C23.001 10.4539 21.6241 9.07695 21.6241 7.37818V3.07572C21.6241 1.37696 23.001 0 24.6998 0H60.9243C62.623 0 64 1.37696 64 3.07572V7.37818ZM56.8639 44.2086C56.9799 44.5439 56.802 44.9106 56.4666 45.0259C56.3968 45.0501 56.3264 45.0615 56.2566 45.0615C55.9903 45.0615 55.7411 44.8942 55.6493 44.6286L55.3524 43.7693C53.6586 44.2976 52.1549 45.0615 50.8449 46.0583L51.423 46.6157C51.6786 46.8621 51.6864 47.2693 51.4401 47.5249C51.3141 47.6559 51.1453 47.7222 50.9773 47.7222C50.8164 47.7222 50.6562 47.6624 50.5309 47.542L49.8545 46.8906C48.9361 47.7414 48.1301 48.7253 47.4395 49.8438C47.1568 50.3009 46.9098 50.7587 46.6912 51.2087L47.5712 51.5134C47.9066 51.6295 48.0845 51.9961 47.9685 52.3315C47.8767 52.597 47.6275 52.7644 47.3612 52.7644C47.2914 52.7644 47.2202 52.753 47.1512 52.7288L46.175 52.3906C45.2787 54.6853 45.1334 56.5542 45.1192 56.7792C51.7455 56.3648 61.2561 54.2588 61.2561 43.5543C61.2561 43.3492 61.2561 43.1264 61.2561 42.8879C59.5829 42.9163 58.0287 43.0972 56.5962 43.4311L56.8639 44.2086ZM43.8319 56.7407C43.8305 56.7749 43.8334 56.8076 43.8369 56.8404C42.7334 56.8796 41.7466 56.8796 40.9492 56.8796C35.3858 56.8796 23.7899 56.8796 17.8563 56.8796C3.4609 56.8796 0 50.5565 0 46.4456C0 34.1171 13.2498 33.818 19.4497 29.6622C27.6153 24.1886 25.4011 11.7525 25.4011 11.7525H61.2532C61.2532 11.7525 61.2532 32.9914 61.2532 41.6006C59.6741 41.6284 57.9347 41.8 56.1776 42.2286L55.5944 40.5405C55.4784 40.2051 55.1124 40.0271 54.7771 40.1425C54.4418 40.2585 54.2638 40.6245 54.3798 40.9598L54.938 42.5753C53.2029 43.1242 51.4842 43.9523 49.9186 45.1676L48.6264 43.9224C48.3708 43.676 47.9635 43.6838 47.7172 43.9394C47.4708 44.195 47.4787 44.6023 47.7343 44.8486L48.9339 46.0042C47.9856 46.8842 47.1099 47.9272 46.3445 49.1675C46.0091 49.7107 45.7194 50.2532 45.4666 50.7836L43.9017 50.2418C43.5657 50.1258 43.1997 50.3038 43.0836 50.6391C42.9676 50.9744 43.1456 51.3411 43.4809 51.4572L44.9554 51.9677C43.9508 54.5557 43.8376 56.6254 43.8319 56.7407ZM9.0919 51.2486C5.80116 50.5558 4.36582 46.9376 4.35158 46.9012C4.22414 46.5702 3.8532 46.405 3.52142 46.5317C3.18964 46.6585 3.02375 47.0308 3.15119 47.3619C3.21812 47.537 4.84284 51.6672 8.82705 52.5066C8.8719 52.5159 8.91604 52.5209 8.96019 52.5209C9.25779 52.5209 9.52478 52.313 9.58886 52.0104C9.66148 51.6622 9.43934 51.3212 9.0919 51.2486Z" fill="white"/>
</svg>
