<svg viewBox="0 0 64 64" fill="none" xmlns="http://www.w3.org/2000/svg">
<path d="M59.317 4.66345C53.248 -1.39455 43.495 -1.54455 37.23 4.17945C35.489 3.45845 33.587 3.71145 31.919 4.91145L20.885 12.6134C20.877 12.6184 20.867 12.6184 20.859 12.6244C20.85 12.6304 20.846 12.6404 20.837 12.6464L1.245 26.3214C0.466 26.8834 0 27.7954 0 28.7614C0 29.3844 0.192 29.9834 0.559 30.4954C1.81 32.3664 4.232 31.5564 4.724 31.1964L32.443 12.2964C31.407 16.6704 32.242 21.2644 34.772 24.9654L5.293 54.4445C4.124 55.6145 4.124 57.5184 5.293 58.6884C5.859 59.2544 6.613 59.5664 7.416 59.5664C8.219 59.5664 8.972 59.2544 9.538 58.6884L39.024 29.2024C41.689 31.0234 44.811 31.9784 47.984 31.9784C49.218 31.9784 50.458 31.8304 51.681 31.5414L46.168 39.5844C46.168 39.5844 46.165 39.5864 46.164 39.5884C46.164 39.5884 46.163 39.5914 46.162 39.5934L32.696 59.2404C32.332 59.7504 32.14 60.3524 32.14 60.9814C32.14 61.9584 32.608 62.8724 33.39 63.4264C33.912 63.7964 34.516 63.9764 35.117 63.9754C36.053 63.9754 36.981 63.5414 37.578 62.7254L59.061 32.0755C60.269 30.3955 60.522 28.4924 59.801 26.7514C65.526 20.4874 65.377 10.7344 59.317 4.66345ZM3.571 29.5634C3.362 29.7164 2.574 29.8774 2.184 29.3294C1.794 28.7814 2.152 28.1334 2.403 27.9524L21.165 14.8554L22.423 16.7074L3.571 29.5634ZM24.075 15.5814L22.805 13.7114L33.074 6.54345C34.049 5.84245 34.935 5.69945 35.674 5.80545C34.613 7.08545 33.782 8.50945 33.171 10.0504C33.171 10.0504 32.616 9.77545 32.077 10.1254L24.075 15.5814ZM34.57 30.8274L33.154 29.4114L45.877 16.6884C46.065 16.5004 46.761 16.2174 47.294 16.6884C47.85 17.2564 47.479 17.9174 47.294 18.1034L34.57 30.8274ZM8.123 57.2744C7.746 57.6514 7.083 57.6514 6.707 57.2744C6.316 56.8834 6.316 56.2494 6.707 55.8584L31.74 30.8254L33.156 32.2414L8.123 57.2744ZM40.475 27.7514L48.707 19.5194C49.27 18.9574 49.581 18.2044 49.581 17.4014C49.581 16.5914 49.271 15.8364 48.708 15.2744C47.576 14.1414 45.597 14.1414 44.463 15.2744L36.23 23.5074C33.959 19.9784 33.377 15.5924 34.729 11.5374C35.309 9.78845 36.232 8.21545 37.44 6.82645L43.297 12.6894C43.687 13.0804 44.321 13.0804 44.711 12.6894C45.102 12.2994 45.102 11.6664 44.711 11.2754L38.849 5.40845C44.339 0.650449 52.68 0.865449 57.902 6.07845C63.117 11.3034 63.332 19.6444 58.573 25.1334L52.706 19.2724C52.316 18.8814 51.683 18.8814 51.292 19.2724C50.902 19.6634 50.902 20.2964 51.292 20.6864L57.154 26.5434C55.765 27.7514 54.192 28.6734 52.442 29.2554C48.388 30.6054 44.002 30.0244 40.473 27.7544L40.475 27.7514ZM35.953 61.5615C35.62 62.0165 35.013 62.1074 34.549 61.7944C33.851 61.3244 34.173 60.6144 34.336 60.3864L47.254 41.5394L49.104 42.7994L35.953 61.5615ZM57.432 30.9164L50.251 41.1614L48.383 39.8895L53.855 31.9064C54.27 31.3554 53.932 30.8094 53.932 30.8094C55.473 30.1974 56.896 29.3664 58.176 28.3064C58.282 29.0464 58.138 29.9344 57.432 30.9164Z" fill="white"/>
<path d="M55.776 9.62045C56.168 9.22945 56.169 8.59745 55.779 8.20545C53.345 5.76245 49.852 4.59745 46.436 5.10245C45.89 5.18245 45.512 5.69045 45.592 6.23645C45.672 6.78445 46.179 7.16845 46.726 7.08145C49.561 6.66345 52.344 7.59145 54.362 9.61745C54.557 9.81345 55.289 10.0464 55.776 9.62045Z" fill="white"/>
</svg>
