<svg viewBox="0 0 64 57" fill="none" xmlns="http://www.w3.org/2000/svg">
<path d="M2.64773 26.8448C3.13078 27.0825 3.67517 27.2741 4.25789 27.4198C3.87452 27.5348 3.50648 27.6805 3.16911 27.8645C2.18001 28.4166 1.52061 29.2907 1.25992 30.3795C0.88421 31.9513 1.08356 33.1934 1.83498 34.0752C3.0311 35.4783 5.08598 35.325 6.19776 35.2406C6.32811 35.233 6.44312 35.2253 6.53513 35.2176C7.14086 35.4247 9.05006 36.9352 11.2966 39.1741C12.5464 40.4315 14.9387 40.4238 16.7942 40.1708C16.0965 44.1119 17.2542 47.5393 18.2587 49.6095C16.4032 49.8165 14.9693 50.4299 13.9726 51.4343C12.5618 52.8528 12.6078 54.4936 12.6154 54.6777C12.6538 55.3524 13.1828 55.8891 13.8499 55.9428C14.2256 55.9735 20.1602 56.4258 26.9459 56.4258C30.4576 56.4258 34.1917 56.3032 37.4964 55.9428C38.3781 55.8431 39.1679 55.6591 39.9193 55.4367C40.9084 55.6591 42.4419 55.8354 44.2667 55.8354C50.4007 55.8354 59.8393 53.9109 63.0443 45.6377C66.303 37.2265 60.5217 29.9884 56.297 24.7055C54.8938 22.9574 53.575 21.3012 52.885 19.9671C52.2869 18.8169 52.1259 17.7588 52.4019 16.716C52.4019 16.7084 52.4019 16.693 52.4019 16.6854C53.0306 14.4005 55.5609 13.0127 55.6146 12.9897C56.1436 12.706 56.4196 12.1079 56.297 11.5252C56.0669 10.4517 55.0625 9.846 54.0044 9.5163C55.6606 6.74068 58.6586 6.71768 58.7812 6.72534C59.318 6.74068 59.847 6.40331 60.054 5.88959C60.2611 5.37587 60.1307 4.77781 59.7243 4.4021C58.6969 3.45134 56.5577 2.56958 54.9398 1.99452C54.9398 1.91018 54.9398 1.82583 54.9168 1.74149C54.8095 1.18943 54.3724 0.760056 53.8204 0.668046C47.326 -0.413066 41.9972 -0.183042 37.9871 1.36579C30.2199 4.34843 28.5561 11.7552 28.9241 17.6361C26.8156 16.2177 24.339 15.5353 22.9512 15.2362C22.6291 13.9021 21.6707 12.729 21.0266 12.0466C21.8087 6.76368 17.8676 2.7996 17.6913 2.63092C17.3463 2.29355 16.8555 2.17087 16.3955 2.29355C14.0646 2.93762 12.1477 6.2653 11.358 7.83713C7.83093 8.43519 3.46048 10.5437 1.19091 16.8924L1.16024 16.9691C0.393492 19.093 -1.65372 24.7439 2.66306 26.8448H2.64773ZM3.67517 17.8815L3.70584 17.7972C5.13965 13.7794 7.68525 11.3565 11.266 10.5744C11.6493 11.6555 12.4314 13.12 13.9419 13.9634C15.4141 14.7838 17.2006 14.8222 19.2555 14.0861C19.8689 14.7838 20.4439 15.6809 20.3749 16.21C20.2829 16.9384 20.8043 17.6055 21.5327 17.7052C21.6017 17.7128 28.4794 18.6866 29.7906 22.712C29.9822 23.2947 30.542 23.6704 31.1477 23.6321C31.2857 23.6321 44.2744 23.0954 45.6852 43.2838C45.6775 44.0352 45.3862 52.3851 37.205 53.2899C29.7829 54.1026 19.8152 53.6426 15.8204 53.4049C15.8511 53.3742 15.8818 53.3359 15.9201 53.3052C16.4952 52.7531 17.7603 52.1167 20.4899 52.2471C21.0266 52.2701 21.4867 51.9941 21.732 51.5417C21.9774 51.0893 21.9391 50.5296 21.6324 50.1155C21.594 50.0618 17.8446 44.848 19.8919 38.9364C20.1449 38.346 23.0662 32.074 30.9637 34.7423C31.6614 34.9799 32.4282 34.6042 32.6658 33.8988C32.9035 33.1934 32.5278 32.4344 31.8224 32.1967C22.9742 29.214 18.8414 35.233 17.7143 37.3032C15.7054 37.7402 13.6505 37.7556 13.1982 37.3032C8.452 32.557 7.06419 32.557 6.61181 32.557C6.45079 32.557 6.24377 32.5724 5.99841 32.5877C5.50002 32.626 4.18889 32.718 3.87452 32.3577C3.75184 32.212 3.6905 31.7903 3.87452 31.0159C3.95886 30.6555 4.15055 30.4101 4.48025 30.2185C5.98307 29.375 9.50244 30.0191 11.3656 30.6248C11.7643 30.7552 12.2014 30.6862 12.5464 30.4485C13.1982 29.9961 14.1873 28.892 14.4633 27.3278C15.6671 26.8294 17.4383 25.526 18.159 22.1369C18.3124 21.4085 17.8523 20.7031 17.1239 20.5498C16.3955 20.3964 15.6901 20.8565 15.5367 21.5849C14.885 24.6595 13.2135 24.9509 13.0908 24.9662C13.0755 24.9662 13.0525 24.9739 13.0371 24.9739C13.0371 24.9739 13.0295 24.9739 13.0218 24.9739C11.266 25.2193 6.19776 25.595 3.82852 24.4372C1.93465 23.5171 2.69373 20.6035 3.67517 17.8815ZM52.1795 3.91138C53 4.14907 54.1194 4.52478 55.1775 4.93882C53.46 5.79758 51.7348 7.36941 50.8454 10.076C50.7227 10.4594 50.7764 10.8734 50.9911 11.2185C51.2058 11.5558 51.5661 11.7782 51.9649 11.8319C52.1489 11.8549 52.3482 11.8855 52.5399 11.9239C51.6122 12.729 50.5617 13.9098 50.002 15.4356L48.8979 15.98V12.2996C48.8979 11.8625 48.6832 11.4562 48.3305 11.2031C48.1005 11.0421 47.8321 10.9578 47.5561 10.9578C47.4027 10.9578 47.257 10.9808 47.1114 11.0345L43.5843 12.3686V7.72211C43.5843 7.30807 43.3926 6.91703 43.0629 6.65634C42.7332 6.40331 42.3039 6.31897 41.9051 6.41864L39.3289 7.09338L39.7199 3.58935C42.7486 2.60791 46.6206 2.40856 51.2671 2.99129C51.3975 3.42833 51.7348 3.77337 52.1795 3.90372V3.91138Z" fill="white"/>
</svg>
