<svg viewBox="0 0 512 512" fill="none" xmlns="http://www.w3.org/2000/svg">
<path d="M288.821 131.282C288.821 149.408 274.126 164.103 256 164.103C237.874 164.103 223.179 149.408 223.179 131.282C223.179 113.156 237.874 98.4615 256 98.4615C274.126 98.4615 288.821 113.156 288.821 131.282Z" fill="white"/>
<path fill-rule="evenodd" clip-rule="evenodd" d="M512 256C512 397.385 397.385 512 256 512C114.615 512 0 397.385 0 256C0 114.615 114.615 0 256 0C397.385 0 512 114.615 512 256ZM79.6222 432.378C126.4 479.156 189.845 505.436 256 505.436C222.923 505.436 191.2 492.296 167.811 468.907C144.422 445.518 131.282 413.795 131.282 380.718C131.282 347.641 144.422 315.918 167.811 292.529C191.2 269.14 222.923 256 256 256C289.077 256 320.8 242.86 344.189 219.471C367.578 196.082 380.718 164.359 380.718 131.282C380.718 98.2048 367.578 66.4823 344.189 43.0931C320.8 19.704 289.077 6.56408 256 6.56408C189.845 6.56408 126.4 32.8439 79.6222 79.6222C32.8439 126.4 6.56408 189.845 6.56408 256C6.56408 322.154 32.8439 385.599 79.6222 432.378ZM256 413.538C274.126 413.538 288.821 398.844 288.821 380.718C288.821 362.592 274.126 347.897 256 347.897C237.874 347.897 223.179 362.592 223.179 380.718C223.179 398.844 237.874 413.538 256 413.538Z" fill="white"/>
</svg>
